<?xml version="1.0" encoding="utf-8"?>
<!-- Generator: Adobe Illustrator 28.3.0, SVG Export Plug-In . SVG Version: 6.00 Build 0)  -->
<svg version="1.0" id="Layer_1" xmlns="http://www.w3.org/2000/svg" xmlns:xlink="http://www.w3.org/1999/xlink" x="0px" y="0px"
	 viewBox="0 0 7237.41 447.58" style="enable-background:new 0 0 7237.41 447.58;" xml:space="preserve">
<style type="text/css">
	.st0{stroke:#000000;stroke-width:4.551;stroke-miterlimit:5.6888;}
</style>
<path class="st0" d="M0.2,445.3c2452.9,2.58,4905.8,5.17,7358.7,7.75c-297.09-40.08-594.18-80.17-891.27-120.25
	c-436.21,16.51-872.41,33.01-1308.62,49.52c-214.57,4.72-429.13,9.43-643.7,14.15c-301.81,2.36-603.61,4.72-905.42,7.07
	c-217.36-3.41-434.28-12.84-650.77-28.29c-300.27-21.43-599.72-54.44-898.35-99.03c-273.55,12.99-488.1,29.44-636.62,42.44
	c-261.33,22.88-330.37,36.17-441.87,12.92c-36.98-7.71-131.78-30.53-260.08-25.34c-52.28,2.11-95.22,8.28-124.04,13.34"/>
<path class="st0" d="M2626.66,375.24"/>
<g>
	<path d="M835.53,329.36c-0.19-14.13-1.77-27.52-3.49-40.29c-0.91-6.79-1.88-13.57-2.38-20.87c-0.53-7.64-0.53-15.59-0.54-23.46
		c-0.01-12.6-0.01-25.43,1.05-37.47"/>
	<g>
		<path d="M836.38,329.36c-0.22-15.72-2.34-31.26-4.37-46.83c-1.03-7.9-1.73-15.8-1.92-23.76c-0.2-8.11-0.15-16.23-0.1-24.34
			c0.05-9.06,0.24-18.12,1.03-27.15c0.1-1.09-1.61-1.09-1.71,0c-0.69,8.01-0.92,16.05-1.01,24.08c-0.09,8.16-0.11,16.34,0.02,24.5
			c0.13,8,0.64,15.95,1.63,23.9c0.94,7.58,2.05,15.14,2.91,22.73c1,8.93,1.69,17.89,1.81,26.87
			C834.69,330.46,836.4,330.46,836.38,329.36L836.38,329.36z"/>
	</g>
</g>
<g>
	<g>
		<path d="M855.65,327.09c-5.06-12.44-10.11-24.87-15.17-37.31c-4.62-11.38-9.89-23.9-7.67-36.44c1.33-7.49,5.28-13.86,10.64-19.14
			c5.74-5.66,12.7-10,19.92-13.52c9.69-4.73,20.06-8.02,30.55-10.46c1.5-0.35,3.02-0.68,4.52-1c1.08-0.22,0.62-1.87-0.46-1.64
			c-11.09,2.32-22.04,5.51-32.38,10.17c-7.75,3.49-15.24,7.84-21.58,13.56c-5.13,4.62-9.44,10.22-11.66,16.83
			c-4.17,12.42-0.13,25.41,4.45,37.09c4.94,12.58,10.16,25.06,15.25,37.59c0.64,1.58,1.28,3.15,1.92,4.73
			C854.42,328.54,856.07,328.11,855.65,327.09L855.65,327.09z"/>
	</g>
</g>
<g>
	<path d="M852.1,193.14c17.81,1.26,33.3,19.27,50.52,14.52c12.78-3.52,18.85-17.74,23.19-30.27c0.84-2.42,1.68-4.89,1.71-7.45
		c0.07-7.4-6.8-13.23-13.93-15.2s-14.69-1.19-22.07-1.76c-2.1-0.16-4.26-0.45-6.1-1.49c-2.47-1.38-4.04-3.91-5.39-6.41
		c-6.59-12.26-12.01-27.99-25.56-31.21c-12.2-2.9-23.67,6.47-32.18,15.67c-1.62,1.76-3.37,3.62-5.69,4.18
		c-2.63,0.63-5.33-0.59-7.7-1.91c-6.96-3.87-13.31-8.9-20.7-11.84c-7.4-2.95-16.48-3.44-22.76,1.47c-6.27,4.9-7.12,16.27-0.22,20.24
		c-7.34-0.48-14.75,0.12-21.92,1.79c-4.1,0.96-8.32,2.37-11.19,5.46c-4.81,5.16-4.31,13.62-0.78,19.72
		c3.53,6.1,9.44,10.38,15.18,14.48c-8.97,9.53-8.84,25.74-0.77,36.04s22.65,14.45,35.37,11.4c12.73-3.05,23.39-12.57,29.35-24.22
		c4.66,2.59,9.31,5.19,13.97,7.78"/>
	<g>
		<path d="M852.1,193.99c10.63,0.8,19.77,7.16,29.26,11.38c4.52,2.01,9.3,3.7,14.29,3.91c4.87,0.21,9.74-1.11,13.79-3.83
			c8.45-5.67,12.82-15.77,16.18-25c1.01-2.79,2.16-5.63,2.58-8.58c0.39-2.68-0.02-5.32-1.18-7.76c-2.25-4.7-6.91-8.02-11.72-9.72
			c-6.27-2.22-13.15-1.87-19.71-2.05c-3.17-0.09-6.89,0.03-9.74-1.56c-2.53-1.42-4.01-4.09-5.33-6.57
			c-4.59-8.62-8.21-18.41-15.41-25.29c-3.45-3.29-7.73-5.6-12.49-6.23c-5.74-0.76-11.4,1.05-16.33,3.93
			c-5.25,3.07-9.8,7.24-13.95,11.64c-1.99,2.12-4.11,4.82-7.3,4.79c-3.29-0.03-6.45-2.32-9.15-3.98
			c-10.04-6.15-20.63-14.11-33.15-11.76c-4.89,0.92-9.44,3.7-11.64,8.27c-1.85,3.85-2.21,8.58-0.33,12.49
			c0.88,1.83,2.28,3.33,4.02,4.35c0.14-0.53,0.28-1.06,0.43-1.59c-6.05-0.38-12.13-0.05-18.11,1c-5.02,0.88-10.47,2.05-14.46,5.42
			c-3.55,3-5.09,7.62-4.89,12.18c0.21,4.72,2.09,9.08,4.96,12.78c3.66,4.71,8.56,8.23,13.37,11.67c-0.06-0.45-0.11-0.89-0.17-1.34
			c-10.7,11.5-8.65,30.75,2.73,40.98c5.79,5.21,13.35,8.14,21.07,8.77c8.06,0.65,16.1-1.43,23.03-5.56
			c7.9-4.7,14.27-11.8,18.48-19.94c-0.39,0.1-0.78,0.21-1.17,0.31c4.66,2.59,9.31,5.19,13.97,7.78c0.96,0.53,1.82-0.94,0.86-1.47
			c-4.66-2.59-9.31-5.19-13.97-7.78c-0.39-0.22-0.95-0.11-1.17,0.31c-7.01,13.61-20.66,24.53-36.44,24.77
			c-7.43,0.11-14.92-2.04-20.97-6.39c-6.01-4.32-10.02-10.75-11.3-18.03c-1.4-7.94,0.53-16.57,6.09-22.54
			c0.4-0.43,0.28-1.02-0.17-1.34c-7.47-5.34-16.03-11.58-17.35-21.38c-0.56-4.15,0.32-8.64,3.33-11.71
			c3.49-3.57,8.8-4.73,13.52-5.63c6.18-1.18,12.49-1.54,18.76-1.14c0.87,0.06,1.13-1.18,0.43-1.59c-3.64-2.16-4.88-6.54-4.27-10.55
			c0.7-4.68,3.61-8.37,7.93-10.27c5.03-2.21,10.92-1.8,16.07-0.23c5.84,1.78,11.02,5.19,16.12,8.44c2.63,1.68,5.27,3.4,8.07,4.82
			c2.58,1.31,5.54,2.22,8.34,1.04c2.61-1.09,4.4-3.45,6.31-5.43c2.05-2.14,4.19-4.19,6.46-6.09c4.37-3.64,9.4-6.85,15.04-8.03
			c5.02-1.05,10.23-0.12,14.56,2.62c3.91,2.48,6.88,6.18,9.35,10.05c2.62,4.11,4.74,8.5,6.91,12.85c1.08,2.16,2.14,4.34,3.35,6.44
			c1.32,2.3,2.98,4.57,5.39,5.81c2.69,1.38,5.87,1.47,8.82,1.59c3.28,0.14,6.56,0.1,9.83,0.26c5.94,0.27,11.94,1.26,16.77,4.96
			c1.97,1.51,3.68,3.41,4.78,5.64c1.26,2.56,1.42,5.35,0.79,8.11c-0.64,2.75-1.7,5.43-2.68,8.08c-0.87,2.34-1.8,4.65-2.84,6.91
			c-2.04,4.41-4.49,8.73-7.83,12.29c-3.28,3.49-7.39,6.05-12.12,6.98c-4.69,0.92-9.47,0.08-13.93-1.47
			c-9.57-3.31-17.97-9.42-27.76-12.2c-2.29-0.65-4.63-1.09-7.01-1.27C851.01,192.2,851.01,193.9,852.1,193.99L852.1,193.99z"/>
	</g>
</g>
<g>
	<path d="M822.66,213.23c1.62,1.28,2.62,3.29,2.69,5.36"/>
	<g>
		<path d="M822.06,213.83c0.38,0.31,0.73,0.65,1.04,1.02c0.03,0.03,0.12,0.15,0.05,0.06c0.03,0.05,0.07,0.09,0.1,0.14
			c0.07,0.1,0.14,0.21,0.21,0.31c0.14,0.21,0.26,0.43,0.38,0.65c0.05,0.1,0.1,0.2,0.14,0.3c0.02,0.05,0.07,0.18,0.03,0.06
			c0.02,0.05,0.04,0.1,0.06,0.15c0.09,0.23,0.16,0.47,0.23,0.72c0.06,0.23,0.11,0.46,0.15,0.69c0.02,0.1-0.01-0.1,0.01,0.06
			c0.01,0.06,0.01,0.11,0.02,0.17c0.01,0.14,0.02,0.28,0.02,0.42c0.02,0.44,0.38,0.88,0.85,0.85c0.45-0.02,0.87-0.38,0.85-0.85
			c-0.08-2.28-1.14-4.52-2.94-5.96c-0.35-0.28-0.87-0.36-1.21,0C821.78,212.93,821.69,213.53,822.06,213.83L822.06,213.83z"/>
	</g>
</g>
<g>
	<g>
		<path d="M832.87,241.61c6.38-3.6,13.91-0.11,19.77,2.88c3.21,1.64,6.46,3.33,9.97,4.26c3.29,0.86,6.72,0.92,10.01,0.03
			c3.56-0.96,6.83-2.95,9.28-5.69c0.73-0.82-0.47-2.03-1.21-1.21c-4.52,5.06-11.5,6.93-17.98,5.13c-6.87-1.91-12.59-6.64-19.62-8.12
			c-3.74-0.79-7.69-0.66-11.08,1.26C831.05,240.67,831.91,242.15,832.87,241.61L832.87,241.61z"/>
	</g>
</g>
<g>
	<path d="M864.4,243.48c1.54-2.97,3.21-5.87,5-8.7c0.36-0.57,0.77-1.17,1.41-1.39c0.86-0.3,1.78,0.2,2.55,0.69
		c2.41,1.51,4.81,3.02,7.22,4.53c1.29,0.81,2.65,1.71,3.2,3.12c0.55,1.41-0.24,3.41-1.76,3.46c-0.46-2.26,1.4-4.53,3.62-5.15
		s4.63,0.08,6.64,1.2c3.11,1.72,5.76,4.76,5.93,8.31c0.16,3.55-3,7.22-6.51,6.66c-0.15,5.4-2.2,11.65-7.36,13.26
		c-5.61,1.75-11.02-2.99-14.85-7.45c-1.77-2.07-3.56-5.13-1.88-7.28c1.04-0.17,1.62,1.43,0.96,2.26c-0.65,0.83-1.86,0.95-2.91,0.83
		c-6.13-0.69-10.32-8.31-7.62-13.85c1.01,0.47,2.01,0.95,3.02,1.42"/>
	<g>
		<path d="M865.14,243.91c1.26-2.41,2.58-4.77,4-7.09c0.36-0.6,0.72-1.2,1.11-1.79c0.24-0.36,0.53-0.81,0.99-0.89
			c0.59-0.1,1.22,0.38,1.69,0.66c0.6,0.37,1.21,0.76,1.8,1.13c1.21,0.76,2.41,1.51,3.61,2.26c1.06,0.67,2.18,1.29,3.17,2.05
			c0.75,0.58,1.55,1.37,1.59,2.37c0.02,0.65-0.31,1.63-1.08,1.7c0.27,0.21,0.55,0.42,0.82,0.63c-0.34-1.94,1.39-3.68,3.15-4.13
			c2.28-0.59,4.7,0.37,6.6,1.59c3.14,2,6.07,6.06,4.19,9.86c-0.88,1.79-2.74,3.4-4.85,3.1c-0.55-0.07-1.06,0.21-1.08,0.82
			c-0.14,4.29-1.4,9.69-5.5,11.92c-5.17,2.8-10.58-1.65-13.95-5.25c-1.66-1.77-4.93-5.14-3.05-7.71c-0.24,0.14-0.49,0.28-0.74,0.42
			c0.6-0.05,0.4,0.9-0.05,1.17c-0.78,0.45-1.88,0.27-2.71,0.06c-1.71-0.43-3.19-1.43-4.34-2.75c-2.25-2.57-3.23-6.49-1.73-9.66
			c-0.39,0.1-0.78,0.21-1.17,0.31c1.01,0.47,2.01,0.95,3.02,1.42c0.99,0.47,1.85-1.01,0.86-1.47c-1.01-0.47-2.01-0.95-3.02-1.42
			c-0.39-0.18-0.96-0.14-1.17,0.31c-1.95,4.11-0.68,9.08,2.48,12.24c1.58,1.58,3.64,2.66,5.88,2.9c1.18,0.12,2.51-0.05,3.38-0.93
			c0.79-0.79,0.85-2.08,0.24-3c-0.27-0.41-0.69-0.72-1.17-0.83c-0.69-0.16-1.14,0.16-1.48,0.74c-0.68,1.15-0.67,2.54-0.27,3.78
			c0.84,2.65,2.96,4.84,4.9,6.75c3.78,3.72,9.18,7.16,14.55,4.62c4.95-2.33,6.59-8.58,6.75-13.6c-0.36,0.27-0.72,0.55-1.08,0.82
			c2.5,0.35,4.71-0.86,6.17-2.86c1.47-2.04,1.79-4.64,0.98-7c-0.85-2.49-2.66-4.52-4.81-5.98c-2.33-1.59-5.33-2.69-8.16-2.02
			c-2.79,0.65-4.96,3.36-4.46,6.26c0.06,0.34,0.48,0.65,0.82,0.63c1.93-0.15,3-2.07,2.74-3.89c-0.31-2.17-2.42-3.45-4.11-4.51
			c-2.38-1.5-4.73-3.06-7.16-4.49c-0.94-0.56-2.05-0.96-3.12-0.51c-1.02,0.44-1.58,1.49-2.14,2.39c-1.63,2.61-3.15,5.28-4.57,8.01
			C863.16,244.02,864.63,244.88,865.14,243.91L865.14,243.91z"/>
	</g>
</g>
<g>
	<g>
		<path d="M827.13,239.09c1.1,0,1.1-1.71,0-1.71C826.03,237.38,826.03,239.09,827.13,239.09L827.13,239.09z"/>
	</g>
</g>
<g>
	<g>
		<path d="M840.43,245.07c5.01-2.63,8.16-8.3,7.73-13.94c-0.05-0.65-0.68-1.05-1.29-0.73c-1.49,0.79-3.2,1.79-3.69,3.53
			c-0.36,1.32,0.05,2.97,1.29,3.69c1.26,0.73,2.66,0.01,3.15-1.27c0.47-1.21-0.23-3.03-1.79-2.57c-1.27,0.37-1.85,2.04-1.3,3.19
			c0.3,0.63,0.92,1.16,1.64,0.92c0.66-0.22,1.21-0.73,1.61-1.29c0.81-1.16,0.98-2.79,0.35-4.07c-0.3-0.61-0.78-1.24-1.54-1.03
			c-0.68,0.19-1.01,0.88-0.82,1.55c0.45,1.59,2.46,1.87,3.25,0.41c0.45-0.84,0.28-1.84,0.14-2.74c-0.05-0.34-0.2-1.64,0.38-1.64
			c1.1-0.01,1.1-1.72,0-1.71c-1.56,0.02-2.24,1.66-2.13,3.03c0.03,0.39,0.13,0.76,0.17,1.14c0.05,0.39-0.02,0.72-0.05,1.09
			c-0.02,0.04-0.05,0.08-0.07,0.11c-0.09,0.09-0.03,0.1,0.18,0.02c-0.01-0.01-0.11-0.02-0.13-0.07c-0.1-0.4-0.81,0.49-0.35,0.42
			c-0.28-0.07-0.55-0.15-0.83-0.22c0.89,0.98,0.49,2.9-0.77,3.39c0.22,0.03,0.44,0.06,0.66,0.09c-0.16-0.1-0.24-0.28-0.17-0.56
			c0.02-0.09,0.19-0.31,0.18-0.35c-0.01-0.13,0.05,0.13-0.02-0.05c0.01,0.02-0.15-0.04-0.13-0.06c-0.06,0.06-0.06,0.47-0.16,0.61
			c-0.16,0.23-0.32,0.32-0.59,0.19c-0.67-0.34-0.68-1.43-0.42-2.01c0.51-1.11,1.79-1.72,2.81-2.26c-0.43-0.24-0.85-0.49-1.29-0.74
			c0.39,5.09-2.36,10.09-6.88,12.47C838.59,244.1,839.46,245.58,840.43,245.07L840.43,245.07z"/>
	</g>
</g>
<g>
	<g>
		<path d="M822.66,215.81c0.84,0.42,1.16,1.35,1.48,2.18c0.4,1.02,0.77,2.05,1.11,3.09c0.69,2.12,1.26,4.28,1.71,6.47
			c0.89,4.39,1.23,8.87,1.07,13.35c0.57,0,1.14,0,1.71,0c-0.13-0.93-0.26-1.85-0.38-2.78c-0.06-0.47-0.02-0.26,0.39-0.52
			c0.32-0.2,0.55-0.53,0.64-0.89c0.2-0.78-0.06-1.73-0.15-2.51c-0.11-0.99-0.22-1.97-0.32-2.96c-0.43-3.85-0.86-7.69-1.3-11.53
			c-0.12-1.08-1.83-1.09-1.71,0c0.44,3.89,0.88,7.78,1.31,11.67c0.1,0.94,0.21,1.88,0.31,2.82c0.06,0.52,0.12,1.04,0.17,1.55
			c0.02,0.14,0.09,0.4,0.03,0.54c0.08-0.21-0.02-0.06-0.18-0.01c-0.74,0.27-1,0.98-0.93,1.71c0.09,0.97,0.26,1.95,0.39,2.91
			c0.14,1.06,1.67,1.13,1.71,0c0.18-4.8-0.24-9.62-1.23-14.32c-0.49-2.31-1.12-4.59-1.89-6.83c-0.38-1.11-0.78-2.22-1.26-3.29
			c-0.39-0.88-0.94-1.7-1.83-2.13C822.55,213.86,821.68,215.32,822.66,215.81L822.66,215.81z"/>
	</g>
</g>
<g>
	<g>
		<path d="M828.61,219.41c0.65-3.6,0.46-7.28-0.61-10.78c-0.27-0.9-1.7-0.76-1.68,0.23c0.09,3.24,0.26,6.46,0.53,9.69
			c0.56-0.07,1.12-0.15,1.68-0.23c-0.74-2.36-1.51-4.74-2.91-6.82c-0.43-0.63-1.69-0.48-1.59,0.43c0.28,2.58,1.02,5.04,2.24,7.33
			c0.45,0.84,1.88,0.27,1.56-0.66c-0.38-1.12-0.73-2.26-1.05-3.4c-0.14-0.53-0.29-1.06-0.4-1.59c-0.12-0.56,0-0.69,0.44-1.06
			c1.46-1.21,2-2.96,2.43-4.75c-0.56-0.07-1.12-0.15-1.68-0.23c-0.02,3.12,0.57,6.21,1.78,9.1c0.13-0.32,0.26-0.64,0.39-0.96
			c0.08-0.04-0.11-0.12-0.2-0.22c-0.13-0.14-0.23-0.32-0.31-0.49c-0.21-0.46-0.34-0.97-0.46-1.46c-0.26-1.03-0.35-2.07-0.34-3.13
			c-0.57,0-1.14,0-1.71,0c0.15,3.42,0.31,6.85,0.47,10.27c0.43-0.24,0.85-0.49,1.29-0.74c-1.59-0.98-1.98-3.13-3.03-4.57
			c-1.25-1.72-3.23-2.51-4.72-3.95c-1.5-1.46-1.83-3.65-3.06-5.3c-1.32-1.77-3.4-2.51-5.42-3.16c-1.05-0.34-1.5,1.31-0.46,1.64
			c2,0.64,3.91,1.34,4.98,3.28c1.02,1.84,1.55,3.78,3.23,5.18c1.54,1.28,3.41,2.12,4.44,3.91c0.92,1.62,1.5,3.42,3.17,4.45
			c0.53,0.33,1.31-0.09,1.29-0.73c-0.15-3.42-0.31-6.85-0.47-10.27c-0.05-1.09-1.69-1.1-1.71,0c-0.03,1.71,0.23,3.47,0.86,5.07
			c0.49,1.23,1.62,2.38,3,1.7c0.3-0.15,0.53-0.64,0.39-0.96c-1.15-2.75-1.74-5.66-1.72-8.64c0.01-0.95-1.44-1.18-1.68-0.23
			c-0.23,0.97-0.46,1.97-0.97,2.83c-0.48,0.82-1.4,1.24-1.83,2.08c-0.49,0.97-0.01,2.17,0.26,3.13c0.32,1.23,0.7,2.46,1.12,3.67
			c0.52-0.22,1.04-0.44,1.56-0.66c-1.06-2.01-1.76-4.21-2-6.47c-0.53,0.14-1.06,0.28-1.59,0.43c1.32,1.95,2.04,4.18,2.73,6.41
			c0.27,0.88,1.76,0.77,1.68-0.23c-0.27-3.23-0.46-6.46-0.53-9.69c-0.56,0.07-1.12,0.15-1.68,0.23c0.98,3.2,1.21,6.58,0.61,9.88
			C826.77,220.03,828.42,220.49,828.61,219.41L828.61,219.41z"/>
	</g>
</g>
<g>
	<g>
		<path d="M829.58,238.03c-3.36-2.58-7.7-3.79-11.9-3.35c-0.46,0.05-0.85,0.36-0.85,0.85c-0.01,0.43,0.4,0.9,0.85,0.85
			c3.95-0.42,7.89,0.69,11.04,3.11c0.37,0.28,0.95,0.05,1.17-0.31C830.15,238.76,829.94,238.31,829.58,238.03L829.58,238.03z"/>
	</g>
</g>
<g>
	<path d="M820.74,233.48c-0.11-1.3-1.05-2.41-2.17-3.05c-1.13-0.64-2.44-0.88-3.73-1.05c-1.75-0.24-3.85-0.25-4.93,1.16
		c-0.65,0.85-0.73,2.03-0.44,3.06c0.28,1.03,0.89,1.94,1.51,2.8c-0.92-0.19-1.87-0.26-2.81-0.23c-0.49,0.02-1.03,0.09-1.35,0.46
		c-0.39,0.45-0.28,1.13-0.14,1.71c0.2,0.8,0.44,1.6,0.7,2.38c0.27,0.81,0.61,1.65,1.29,2.17s1.79,0.57,2.3-0.11
		c0.16-0.22,0.25-0.5,0.43-0.71c0.49-0.58,1.42-0.46,2.12-0.18c0.71,0.27,1.47,0.65,2.19,0.4c0.86-0.3,1.19-1.32,1.41-2.2
		c0.38-1.55,0.75-3.11,1.12-4.66"/>
	<g>
		<path d="M821.6,233.48c-0.22-1.91-1.52-3.35-3.25-4.11c-1.7-0.74-3.87-1.1-5.73-0.95c-1.79,0.15-3.46,1-3.99,2.82
			c-0.59,2.03,0.47,3.98,1.62,5.57c0.32-0.42,0.64-0.84,0.96-1.25c-1.59-0.3-4.84-0.91-5.42,1.25c-0.26,0.96,0.14,2.02,0.41,2.94
			c0.29,0.99,0.58,2.08,1.18,2.95c1.06,1.55,3.44,2.09,4.51,0.23c0.23-0.39,0.39-0.49,0.86-0.4c0.5,0.09,0.95,0.35,1.43,0.5
			c0.96,0.3,2,0.22,2.74-0.52c0.71-0.72,0.94-1.77,1.17-2.72c0.33-1.38,0.67-2.76,1-4.14c0.26-1.07-1.39-1.52-1.64-0.46
			c-0.27,1.12-0.54,2.24-0.81,3.36c-0.19,0.8-0.28,1.98-0.82,2.65c-0.6,0.73-1.71-0.07-2.4-0.27c-0.86-0.23-1.85-0.21-2.52,0.46
			c-0.27,0.27-0.4,0.8-0.72,0.98c-0.29,0.16-0.72,0-0.96-0.18c-0.74-0.55-0.99-1.72-1.25-2.54c-0.15-0.51-0.9-2.18-0.35-2.54
			c0.31-0.2,1.01-0.1,1.35-0.1c0.61,0.02,1.21,0.09,1.81,0.2c0.65,0.12,1.44-0.59,0.96-1.25c-0.83-1.15-1.8-2.55-1.5-4.06
			c0.27-1.35,1.58-1.76,2.8-1.8c2.25-0.06,6.53,0.5,6.87,3.37C820.01,234.55,821.72,234.57,821.6,233.48L821.6,233.48z"/>
	</g>
</g>
<g>
	<g>
		<path d="M819.96,233.97c0.02,0.01,0.04,0.03,0.06,0.04c-0.06-0.05-0.11-0.09-0.17-0.13c0.32,0.25,0.61,0.55,0.86,0.86
			c-0.05-0.06-0.09-0.11-0.13-0.17c0.26,0.34,0.47,0.7,0.64,1.09c-0.03-0.07-0.06-0.14-0.09-0.21c0.02,0.05,0.05,0.11,0.06,0.17
			c0.08,0.22,0.19,0.39,0.39,0.51c0.18,0.11,0.46,0.15,0.66,0.09c0.2-0.07,0.4-0.19,0.51-0.39c0.1-0.19,0.16-0.44,0.09-0.66
			c-0.19-0.5-0.43-0.98-0.76-1.41c-0.18-0.23-0.36-0.47-0.57-0.68c-0.21-0.22-0.45-0.4-0.69-0.58c-0.16-0.12-0.47-0.14-0.66-0.09
			c-0.2,0.06-0.42,0.21-0.51,0.39c-0.1,0.2-0.16,0.44-0.09,0.66c0.03,0.07,0.06,0.14,0.09,0.21
			C819.72,233.79,819.83,233.89,819.96,233.97L819.96,233.97z"/>
	</g>
</g>
<g>
	<g>
		<path d="M835,292.66c0.94,4.54,2.63,8.91,4.97,12.91c0.45-0.35,0.89-0.69,1.34-1.04c-2.15-2.71-3.5-5.83-4.31-9.17
			c-0.39-1.63-0.81-3.23-1.51-4.76c-0.7-1.52-1.63-2.92-2.73-4.19c-0.46-0.53-1.52-0.12-1.46,0.6c0.53,5.62,3.52,10.67,3.92,16.3
			c0.56-0.07,1.12-0.15,1.68-0.23c-0.83-2.08-1.27-4.26-1.31-6.5c-0.56,0.07-1.12,0.15-1.68,0.23c0.83,2.53,1.96,4.95,3.36,7.21
			c0.39,0.63,1.35,0.51,1.56-0.21c0.57-1.92,0.24-4.03-0.94-5.65c-0.63-0.87-2.06-0.1-1.47,0.86c1.71,2.79,3.43,5.57,5.14,8.36
			c0.45-0.35,0.89-0.69,1.34-1.04c-1.87-1.94-3.75-3.88-5.62-5.82c-0.48-0.49-1.54-0.15-1.46,0.6c0.2,1.85,0.93,3.52,2.19,4.9
			c0.4-0.4,0.8-0.8,1.21-1.21c-1.59-1.34-2.92-2.92-3.95-4.72c-0.47-0.81-1.92-0.27-1.56,0.66c0.86,2.22,2.07,4.24,3.62,6.04
			c0.4-0.4,0.8-0.8,1.21-1.21c-0.98-0.9-1.68-1.99-2.06-3.27c-0.31-1.06-1.88-0.61-1.64,0.45c0.16,0.72,0.44,1.4,0.82,2.03
			c0.1-0.39,0.2-0.78,0.31-1.17c-0.13,0.08-0.23,0.14-0.38,0.06c-0.58-0.28-1.57,0.2-1.25,0.96c0.61,1.46,1.31,2.87,2.14,4.23
			c0.33,0.54,0.84,1.19,1.56,0.88c0.57-0.24,0.73-0.9,0.43-1.42c-0.14-0.24-0.45-0.45-0.74-0.42c-0.02,0-0.05,0.01-0.06,0.01
			c-1.08,0.12-1.09,1.83,0,1.71c0.02,0,0.05-0.01,0.06-0.01c-0.24-0.14-0.49-0.28-0.74-0.42c-0.03-0.09-0.06-0.18-0.08-0.28
			c0.09-0.2,0.16-0.4,0.25-0.6c-0.02,0.02-0.04,0.03-0.06,0.06c0.28-0.07,0.55-0.15,0.83-0.22c0.1,0.03-0.31-0.68-0.39-0.81
			c-0.19-0.34-0.38-0.68-0.56-1.02c-0.36-0.69-0.71-1.41-1.01-2.13c-0.42,0.32-0.84,0.64-1.25,0.96c0.71,0.34,1.42,0.35,2.1-0.06
			c0.39-0.23,0.55-0.77,0.31-1.17c-0.32-0.52-0.52-1.02-0.65-1.62c-0.55,0.15-1.1,0.3-1.64,0.46c0.46,1.55,1.3,2.93,2.5,4.03
			c0.82,0.75,1.92-0.38,1.21-1.21c-1.35-1.56-2.43-3.36-3.19-5.29c-0.52,0.22-1.04,0.44-1.56,0.66c1.1,1.92,2.52,3.64,4.22,5.07
			c0.83,0.71,1.96-0.39,1.21-1.21c-0.93-1.02-1.54-2.31-1.69-3.69c-0.48,0.2-0.97,0.4-1.46,0.6c1.87,1.94,3.75,3.88,5.62,5.82
			c0.67,0.69,1.85-0.2,1.34-1.04c-1.71-2.79-3.43-5.57-5.14-8.36c-0.49,0.28-0.98,0.57-1.47,0.86c0.93,1.28,1.22,2.82,0.76,4.33
			c0.52-0.07,1.04-0.14,1.56-0.2c-1.34-2.14-2.41-4.41-3.19-6.8c-0.29-0.89-1.69-0.77-1.68,0.23c0.03,2.38,0.48,4.74,1.37,6.95
			c0.32,0.81,1.75,0.82,1.68-0.23c-0.4-5.65-3.38-10.7-3.92-16.3c-0.48,0.2-0.97,0.4-1.46,0.6c1.08,1.25,1.97,2.66,2.61,4.18
			c0.68,1.61,1,3.33,1.44,5.02c0.86,3.27,2.4,6.27,4.5,8.91c0.61,0.77,1.82-0.22,1.34-1.04c-2.28-3.89-3.89-8.09-4.8-12.5
			C836.42,291.13,834.78,291.58,835,292.66L835,292.66z"/>
	</g>
</g>
<g>
	<g>
		<path d="M839.91,307.49c1.14,0.67,1.96-0.69,1.74-1.72c-0.25-1.14-1.05-2.73-2.02-3.42c-1.1-0.79-1.95,0.72-1.88,1.65
			c0.05,0.65,0.34,1.25,0.58,1.85c0.31,0.79,0.62,1.58,0.93,2.36c0.52-0.22,1.04-0.44,1.56-0.66c-0.81-1.59-1.77-3.1-2.86-4.51
			c-0.35-0.46-1.16-0.64-1.47,0c-0.16,0.32-0.32,0.65-0.48,0.98c-0.12,0.24-0.48,0.72-0.48,0.98c-0.15,0.23-0.08,0.21,0.2-0.05
			c-0.11-0.11-0.22-0.23-0.32-0.34c-0.19-0.21-0.38-0.42-0.56-0.64c-0.75-0.92-1.44-2.04-1.09-3.25c-0.48,0.12-0.95,0.25-1.43,0.38
			c0.84,0.88,1.42,1.91,1.76,3.08c0.26,0.89,1.76,0.76,1.68-0.23c-0.07-0.79-0.28-1.49-0.75-2.14c-0.47-0.65-1.59-0.47-1.59,0.43
			c0.01,1.31,0.36,2.56,1.08,3.66c0.36,0.56,1.43,0.57,1.56-0.2c0.42-2.43,0.85-4.9,0.68-7.38c-0.18-2.46-1.06-4.64-2.23-6.79
			c-0.4-0.75-1.6-0.4-1.59,0.43c0.01,1.51,0.03,3.02,0.04,4.53c0.01,1.24,0.19,2.55-0.75,3.5c-0.81,0.83-1.64,1.52-2.14,2.6
			c-0.49,1.06-0.69,2.23-0.55,3.39c0.09,0.69,0.89,1.18,1.46,0.6c1.5-1.53,3.03-3.11,4.01-5.03c0.88-1.74,1.47-4.02,0.79-5.93
			c-0.27-0.77-0.98-1.52-1.88-1.26c-0.41,0.12-0.69,0.43-0.96,0.74c-0.4,0.46-0.81,0.92-1.21,1.39c-0.62,0.76-0.63,1.52,0.09,2.22
			c0.28,0.27,0.43,0.4,0.38,0.81c-0.07,0.47-0.32,0.9-0.56,1.3c0.49,0.28,0.98,0.57,1.47,0.86c1.55-2.9-0.51-6.1-0.81-9.07
			c-0.33-3.31,0.1-6.68-0.82-9.92c-0.26-0.9-1.72-0.76-1.68,0.23c0.3,7.46-0.69,14.91-2.94,22.04c-0.23,0.74,0.63,1.29,1.25,0.96
			c0.59-0.31,1.12-0.68,1.62-1.1c-0.4-0.4-0.8-0.8-1.21-1.21c-0.12,0.12-0.24,0.24-0.36,0.36c-0.78,0.78,0.43,1.99,1.21,1.21
			c0.12-0.12,0.24-0.24,0.36-0.36c0.79-0.79-0.38-1.9-1.21-1.21c-0.39,0.33-0.82,0.6-1.28,0.83c0.42,0.32,0.84,0.64,1.25,0.96
			c2.29-7.25,3.31-14.89,3-22.49c-0.56,0.07-1.12,0.15-1.68,0.23c0.86,3,0.47,6.14,0.73,9.22c0.13,1.47,0.46,2.85,0.87,4.26
			c0.4,1.34,0.9,2.88,0.19,4.2c-0.52,0.97,0.92,1.81,1.47,0.86c0.65-1.11,1.25-2.65,0.31-3.79c-0.1-0.12-0.2-0.24-0.32-0.33
			c-0.05-0.04-0.09-0.08-0.14-0.12c-0.13-0.14-0.14-0.06-0.02,0.26c0.02,0.01,0.78-0.9,0.86-1c0.14-0.16,0.28-0.34,0.43-0.5
			c0.05-0.06,0.1-0.11,0.15-0.17c0.15-0.14,0.05-0.16-0.32-0.09c-0.02,0.03,0.24,0.89,0.26,1c0.34,3.44-2.34,6.17-4.54,8.43
			c0.48,0.2,0.97,0.4,1.46,0.6c-0.14-1.16,0.07-2.31,0.75-3.29c0.65-0.94,1.72-1.5,2.24-2.54c0.57-1.13,0.47-2.43,0.46-3.66
			c-0.01-1.51-0.03-3.02-0.04-4.53c-0.53,0.14-1.06,0.28-1.59,0.43c1.06,1.96,1.89,3.94,2.01,6.2c0.12,2.24-0.25,4.46-0.63,6.66
			c0.52-0.07,1.04-0.14,1.56-0.2c-0.56-0.86-0.84-1.77-0.84-2.8c-0.53,0.14-1.06,0.28-1.59,0.43c0.28,0.39,0.47,0.79,0.51,1.27
			c0.56-0.07,1.12-0.15,1.68-0.23c-0.42-1.45-1.16-2.74-2.2-3.83c-0.45-0.47-1.26-0.23-1.43,0.38c-0.59,2.05,0.61,3.9,1.92,5.38
			c0.59,0.66,1.43,1.54,2.38,0.93c0.35-0.22,0.53-0.59,0.71-0.94c0.28-0.57,0.56-1.14,0.85-1.71c-0.49,0-0.98,0-1.47,0
			c1.09,1.42,2.04,2.92,2.86,4.51c0.43,0.84,1.92,0.25,1.56-0.66c-0.33-0.83-0.65-1.66-0.98-2.5c-0.14-0.35-0.32-0.71-0.42-1.07
			c-0.02-0.09-0.03-0.19-0.06-0.27c-0.14-0.39,0.21-0.13-0.11-0.07c-0.28-0.07-0.55-0.15-0.83-0.22c0.4,0.43,0.75,0.89,1.02,1.41
			c0.13,0.24,0.24,0.49,0.33,0.75c0.05,0.15,0.1,0.29,0.14,0.44c-0.06-0.28,0.2-0.35,0.77-0.21
			C839.82,305.46,838.96,306.94,839.91,307.49L839.91,307.49z"/>
	</g>
</g>
<g>
	<g>
		<path d="M831.83,307.02c1.04-3.53,2.05-7.31,0.88-10.93c-0.23-0.72-1.52-0.9-1.64,0c-0.31,2.23-0.62,4.47-0.93,6.7
			c-0.11,0.84-0.17,1.71,0.68,2.18c0.51,0.28,1.43,0.26,1.19,1.11c0.55,0,1.1,0,1.64,0c-0.3-1.12-0.57-2.24-0.84-3.37
			c-0.25-1.06-0.63-2.21-0.34-3.3c0.29-1.1,0.72-2.03,0.64-3.21c-0.07-1.13-0.42-2.22-0.77-3.28c-0.2-0.6-0.95-0.84-1.43-0.38
			c-1.72,1.67-0.83,4.2-1.83,6.18c-0.57,1.13-1.39,2.09-1.85,3.27c-0.45,1.15-0.5,2.33,0.01,3.46c0.29,0.64,1.14,0.45,1.47,0
			c1.25-1.72,2.53-3.68,2.25-5.9c-0.09-0.75-1.17-1.27-1.59-0.43c-0.94,1.88-2,3.68-3.17,5.42c-0.59,0.87,0.64,1.59,1.34,1.04
			c1.13-0.89,2.22-2.62,0.82-3.84c-0.47-0.4-1.26-0.28-1.43,0.38c-0.22,0.87-0.67,1.64-1.37,2.21c-0.76,0.61-1.8,0.72-2.51,1.4
			c-0.64,0.61-0.97,1.62-0.44,2.41c0.46,0.68,1.44,0.96,2.13,0.46c0.88-0.64,0.03-2.12-0.86-1.47c0.04-0.03,0.16,0.1,0.16,0.1
			c0.07-0.05,0.14-0.22,0.21-0.29c0.25-0.23,0.66-0.34,0.98-0.47c0.56-0.23,1.07-0.54,1.54-0.93c0.9-0.76,1.52-1.82,1.8-2.96
			c-0.48,0.12-0.95,0.25-1.43,0.38c0.53,0.46-0.5,1.17-0.82,1.42c0.45,0.35,0.89,0.69,1.34,1.04c1.18-1.74,2.24-3.54,3.17-5.42
			c-0.53-0.14-1.06-0.28-1.59-0.43c0.23,1.93-0.94,3.55-2.02,5.03c0.49,0,0.98,0,1.47,0c-0.85-1.89,1.47-4.03,2.13-5.64
			c0.35-0.88,0.44-1.79,0.51-2.73c0.07-0.88,0.1-1.83,0.77-2.48c-0.48-0.12-0.95-0.25-1.43-0.38c0.36,1.07,0.76,2.2,0.73,3.35
			c-0.03,1.11-0.69,2.09-0.75,3.2c-0.06,1.09,0.25,2.19,0.5,3.24c0.27,1.13,0.55,2.25,0.84,3.37c0.22,0.82,1.42,0.81,1.64,0
			c0.21-0.76,0.06-1.55-0.44-2.16c-0.23-0.29-0.52-0.51-0.85-0.66c-0.19-0.08-0.36-0.11-0.55-0.18c-0.21-0.07-0.11,0.03-0.03-0.28
			c0.28-1.06,0.31-2.26,0.47-3.35c0.15-1.11,0.31-2.23,0.47-3.35c-0.55,0-1.1,0-1.64,0c1.08,3.33,0.08,6.79-0.88,10.03
			C829.87,307.61,831.52,308.07,831.83,307.02L831.83,307.02z"/>
	</g>
</g>
<g>
	<g>
		<path d="M844.07,306.83c-0.81-3.79-3.54-6.62-5.83-9.59c-2.54-3.28-4.08-7.02-4.78-11.1c-0.4-2.36-0.52-4.77-0.47-7.16
			c-0.57,0-1.14,0-1.71,0c-0.03,2.09,1.22,3.75,1.77,5.69c0.31,1.09,0.3,2.23,0.57,3.32c0.28,1.09,0.75,2.12,1.22,3.13
			c2.1,4.44,4.24,8.86,6.37,13.28c0.38,0.79,1.59,0.37,1.59-0.43c0.01-2.69,0.01-5.42-0.62-8.06c-0.63-2.62-2.01-4.89-3.52-7.08
			c-2.91-4.24-5.8-8.73-6.33-13.98c-0.36,0.27-0.72,0.55-1.08,0.82c0.82,0.26,1.08,1.62,1.33,2.33c0.37,1.07,0.72,2.14,1.05,3.23
			c0.68,2.17,1.3,4.35,1.94,6.53c1.27,4.32,2.59,8.64,4.43,12.75c1.04,2.34,2.26,4.6,3.7,6.72c0.39,0.57,1.39,0.56,1.56-0.2
			c0.47-2.07-0.36-3.98-1.41-5.73c-1.08-1.79-2.2-3.53-3.17-5.38c-1.99-3.75-3.57-7.69-4.77-11.75c-0.31-1.05-1.96-0.6-1.64,0.45
			c1.14,3.88,2.63,7.65,4.47,11.25c0.91,1.79,1.91,3.53,2.98,5.22c1.01,1.6,2.35,3.48,1.9,5.48c0.52-0.07,1.04-0.14,1.56-0.2
			c-5.35-7.89-7.28-17.35-10.11-26.29c-0.39-1.21-0.77-2.43-1.22-3.63c-0.41-1.08-0.97-2.05-2.13-2.43
			c-0.49-0.16-1.13,0.28-1.08,0.83c0.52,5.2,3.07,9.78,5.98,14.01c1.49,2.16,3.03,4.32,3.75,6.87c0.76,2.67,0.73,5.48,0.72,8.23
			c0.53-0.14,1.06-0.28,1.59-0.43c-2.05-4.27-4.1-8.54-6.14-12.81c-0.46-0.96-0.92-1.92-1.21-2.95c-0.31-1.1-0.31-2.25-0.59-3.35
			c-0.46-1.85-1.8-3.49-1.77-5.46c0.02-1.1-1.68-1.1-1.71,0c-0.09,4.22,0.35,8.53,1.81,12.51c0.72,1.97,1.67,3.84,2.88,5.55
			c1.11,1.56,2.38,3.01,3.54,4.53c1.31,1.73,2.45,3.57,2.91,5.71C842.66,308.36,844.3,307.9,844.07,306.83L844.07,306.83z"/>
	</g>
</g>
<g>
	<g>
		<path d="M833.72,283.17c0.85,2.46,1.99,4.81,3.44,6.98c0.42,0.63,1.7,0.48,1.59-0.43c-0.28-2.41-1.2-4.58-2.74-6.46
			c-0.53-0.64-1.74,0.05-1.43,0.83c0.96,2.4,1.91,4.79,2.78,7.21c0.83,2.31,1.44,4.69,2.25,7c0.77,2.22,2.16,4.06,3.31,6.09
			c1.19,2.09,2.12,4.3,2.81,6.6c0.31,1.05,1.96,0.6,1.64-0.45c-0.68-2.28-1.59-4.48-2.74-6.57c-1.13-2.05-2.61-3.9-3.38-6.13
			c-0.81-2.32-1.42-4.69-2.25-7c-0.87-2.42-1.83-4.82-2.78-7.21c-0.48,0.28-0.95,0.55-1.43,0.83c1.23,1.49,2.02,3.33,2.24,5.26
			c0.53-0.14,1.06-0.28,1.59-0.43c-1.36-2.05-2.46-4.24-3.26-6.57C835.02,281.68,833.37,282.12,833.72,283.17L833.72,283.17z"/>
	</g>
</g>
<g>
	<g>
		<path d="M846.61,234.62c1.1,0,1.1-1.71,0-1.71S845.52,234.62,846.61,234.62L846.61,234.62z"/>
	</g>
</g>
<g>
	<g>
		<path d="M844.95,232.41c0,0.27,0,0.54,0,0.81c-0.01,0.12,0.02,0.23,0.07,0.33c0.03,0.11,0.09,0.2,0.18,0.27
			c0.08,0.09,0.17,0.14,0.27,0.18c0.1,0.05,0.21,0.08,0.33,0.07c0.07-0.01,0.15-0.02,0.23-0.03c0.14-0.04,0.27-0.11,0.38-0.22
			c0.05-0.06,0.09-0.11,0.13-0.17c0.08-0.13,0.11-0.28,0.11-0.43c0-0.27,0-0.54,0-0.81c0.01-0.12-0.02-0.23-0.07-0.33
			c-0.03-0.11-0.09-0.2-0.18-0.27c-0.08-0.09-0.17-0.14-0.27-0.18c-0.1-0.05-0.21-0.08-0.33-0.07c-0.07,0.01-0.15,0.02-0.23,0.03
			c-0.14,0.04-0.27,0.11-0.38,0.22c-0.05,0.06-0.09,0.11-0.13,0.17C844.99,232.12,844.95,232.26,844.95,232.41L844.95,232.41z"/>
	</g>
</g>
<g>
	<g>
		<path d="M845.6,232.93c-0.6,0.28-1.19,0.56-1.79,0.84c-0.06,0.05-0.11,0.09-0.17,0.13c-0.05,0.06-0.09,0.11-0.13,0.17
			c-0.1,0.16-0.13,0.36-0.1,0.55c0.02,0.15,0.07,0.28,0.17,0.4c0.1,0.13,0.27,0.28,0.44,0.31c0.2,0.03,0.32,0.05,0.51,0.02
			c0.18-0.02,0.31-0.07,0.48-0.15c0.25-0.12,0.44-0.32,0.6-0.55c0.14-0.19,0.22-0.43,0.25-0.67c0.02-0.19,0.02-0.32-0.01-0.51
			c-0.02-0.14-0.09-0.27-0.14-0.39c-0.09-0.18-0.32-0.34-0.51-0.39c-0.2-0.06-0.48-0.03-0.66,0.09s-0.34,0.29-0.39,0.51
			c-0.05,0.23-0.02,0.44,0.09,0.66c0.01,0.01,0.01,0.03,0.02,0.04c-0.03-0.07-0.06-0.14-0.09-0.21c0.02,0.05,0.03,0.1,0.04,0.15
			c-0.01-0.07-0.02-0.15-0.03-0.23c0.01,0.06,0.01,0.11,0,0.17c0.01-0.07,0.02-0.15,0.03-0.23c-0.01,0.06-0.02,0.11-0.05,0.17
			c0.03-0.07,0.06-0.14,0.09-0.21c-0.03,0.07-0.06,0.13-0.11,0.19c0.05-0.06,0.09-0.11,0.13-0.17c-0.04,0.05-0.09,0.1-0.14,0.14
			c0.06-0.05,0.11-0.09,0.17-0.13c-0.05,0.04-0.11,0.07-0.16,0.1c0.07-0.03,0.14-0.06,0.2-0.09c-0.05,0.02-0.1,0.03-0.14,0.04
			c0.07-0.01,0.15-0.02,0.23-0.03c-0.05,0.01-0.1,0.01-0.15,0c0.07,0.01,0.15,0.02,0.23,0.03c-0.01,0-0.02,0-0.02-0.01
			c0.07,0.52,0.14,1.04,0.2,1.56c0.6-0.28,1.19-0.56,1.79-0.84c0.18-0.09,0.34-0.32,0.39-0.51c0.06-0.21,0.03-0.48-0.09-0.66
			c-0.12-0.18-0.29-0.34-0.51-0.39c-0.07-0.01-0.15-0.02-0.23-0.03C845.88,232.82,845.73,232.85,845.6,232.93L845.6,232.93z"/>
	</g>
</g>
<g>
	<g>
		<path d="M845.44,225.55c-0.15,0.07,0.14-0.05-0.02,0.01c-0.07,0.02-0.13,0.05-0.2,0.07c-0.13,0.05-0.25,0.09-0.38,0.13
			c-0.3,0.11-0.61,0.23-0.86,0.42c-0.49,0.36-0.85,0.87-0.98,1.47s-0.07,1.22,0.23,1.78c0.29,0.54,0.8,0.91,1.37,1.12
			c0.64,0.24,1.34,0.15,1.95-0.12c0.39-0.18,0.56-0.82,0.31-1.17c-0.49-0.69-0.99-1.38-1.48-2.06c-0.22-0.3-0.58-0.52-0.96-0.39
			c-0.36,0.12-0.61,0.43-0.63,0.83c-0.03,1.17,0.61,2.37,1.63,2.94c0.38,0.21,0.81,0.32,1.25,0.22c0.35-0.08,0.65-0.32,0.85-0.62
			c0.34-0.54,0.27-1.23,0.02-1.79c-0.13-0.28-0.34-0.52-0.53-0.76c-0.02-0.02-0.03-0.05-0.05-0.07c-0.07-0.09,0.1,0.13,0.03,0.04
			c-0.03-0.05-0.07-0.1-0.11-0.16c-0.03-0.05-0.06-0.15-0.11-0.19c0.01,0,0.06,0.16,0.03,0.08c-0.01-0.05-0.03-0.09-0.04-0.13
			c-0.55,0.15-1.1,0.3-1.64,0.45c0.14,0.48,0.45,0.9,0.89,1.14c0.19,0.1,0.45,0.15,0.66,0.09c0.23-0.07,0.36-0.21,0.51-0.39
			c0.35-0.45,0.29-1.1,0.04-1.58c-0.26-0.49-0.79-0.83-1.34-0.81c-0.36,0.01-0.74,0.26-0.82,0.63c-0.31,1.37,0.75,2.77,2.16,2.8
			c0.49,0.01,0.81-0.4,0.85-0.85c0.11-1.25-0.67-2.58-1.89-2.95c-1.34-0.4-2.78,0.68-2.85,2.05c-0.01,0.18,0.02,0.38,0.07,0.56
			c0.11,0.38,0.33,0.66,0.72,0.76c0.39,0.1,0.78,0.18,1.17,0.27c0.42,0.1,0.97-0.12,1.05-0.6c0.12-0.67,0.14-1.43-0.41-1.92
			c-0.6-0.54-1.49-0.43-2,0.18c-0.49,0.58-0.59,1.37-0.19,2.03c0.32,0.52,0.84,0.87,1.37,1.15c0.57,0.31,1.27-0.07,1.29-0.73
			c0.01-1.09-0.55-2.08-1.43-2.7c-0.31-0.22-0.78-0.12-1.04,0.13c-0.77,0.76-0.61,2.26,0.41,2.74c0.4,0.19,0.94,0.12,1.17-0.31
			c0.2-0.38,0.13-0.96-0.31-1.17c-0.03-0.01-0.05-0.02-0.07-0.04c-0.07-0.05-0.05-0.03,0.07,0.06c-0.02-0.02-0.04-0.04-0.06-0.06
			c-0.06-0.06-0.04-0.04,0.06,0.07c-0.02-0.02-0.03-0.05-0.05-0.07c-0.04-0.08-0.03-0.05,0.03,0.09c-0.01-0.05-0.03-0.12-0.05-0.16
			c0.02,0.15,0.02,0.19,0.02,0.1c0-0.03,0-0.06,0-0.09c-0.01-0.14-0.06,0.23,0,0.02c0.06-0.21-0.07,0.13-0.01,0.01
			c0.07-0.12-0.16,0.16,0,0.01c-0.35,0.05-0.69,0.09-1.04,0.13c0.13,0.09-0.1-0.09-0.02-0.02c0.03,0.02,0.06,0.05,0.09,0.07
			c0.06,0.06,0.12,0.11,0.18,0.18c0.01,0.01,0.13,0.15,0.04,0.05c-0.09-0.11,0.02,0.04,0.03,0.05c0.05,0.07,0.09,0.14,0.13,0.22
			c0.02,0.03,0.03,0.07,0.05,0.1c0.05,0.1-0.07-0.2-0.01-0.02c0.03,0.08,0.05,0.16,0.07,0.24c0.01,0.03,0.02,0.07,0.02,0.11
			c0.03,0.14-0.01,0.04,0-0.03c-0.01,0.09,0.01,0.19,0.01,0.28c0.43-0.24,0.85-0.49,1.29-0.73c-0.16-0.09-0.31-0.17-0.47-0.27
			c-0.03-0.02-0.06-0.04-0.09-0.06c-0.15-0.1,0.1,0.09,0.02,0.02c-0.06-0.06-0.13-0.11-0.19-0.18c-0.06-0.06-0.05-0.12,0.02,0.03
			c-0.01-0.03-0.04-0.06-0.06-0.09c-0.06-0.09-0.03-0.14-0.01,0.02c-0.01-0.03-0.02-0.07-0.03-0.1c-0.06-0.15,0.02,0.17,0.01,0.07
			c-0.02-0.14,0.01,0.02-0.02,0.07c0.01-0.02,0.03-0.09,0.03-0.11c0.01-0.07-0.1,0.18-0.02,0.06c0.02-0.02,0.03-0.05,0.05-0.08
			c0.07-0.12-0.1,0.09-0.04,0.05c0.02-0.02,0.06-0.05,0.08-0.07c-0.03,0.05-0.18,0.1-0.05,0.05c0.09-0.04-0.22,0.08-0.07,0.03
			c0.13-0.04-0.19,0.01-0.09,0.01c0.09,0-0.24-0.05-0.09-0.01c-0.02-0.01-0.19-0.09-0.09-0.03c-0.1-0.09-0.13-0.1-0.08-0.06
			c0.03,0.03,0.02,0.02-0.02-0.03c-0.05-0.06-0.05-0.07-0.02-0.01c-0.02-0.04-0.03-0.08-0.05-0.12c0,0.02,0.02,0.09,0.03,0.11
			c0.03,0.07-0.01-0.22-0.01-0.06c0,0.07,0.01,0.15,0,0.23c-0.01,0.04-0.02,0.09-0.01,0.12c0.01-0.04,0.01-0.09,0.02-0.12
			c-0.01,0.03-0.01,0.06-0.02,0.1c0.35-0.2,0.7-0.4,1.05-0.6c-0.42-0.1-0.82-0.19-1.24-0.29c0.17,0.13,0.34,0.26,0.51,0.39
			c0.11,0.24,0.04,0.07,0.02,0.01c-0.06-0.18-0.01,0.18,0.01,0.03c0-0.04,0.01-0.09,0.01-0.13c0.02,0.18-0.03,0.17,0,0.05
			c0.01-0.03,0.07-0.22,0.02-0.07c-0.06,0.15,0.02-0.03,0.04-0.06c0.02-0.04,0.06-0.07,0.08-0.11c-0.07,0.15-0.09,0.1-0.01,0.03
			c0.03-0.03,0.07-0.06,0.1-0.1c0.11-0.11-0.18,0.1-0.01,0c0.05-0.03,0.09-0.06,0.14-0.09c0.01-0.01,0.03-0.02,0.04-0.02
			c0.08-0.04,0.06-0.03-0.07,0.03c0.04,0,0.09-0.03,0.14-0.04c0.03-0.01,0.06-0.02,0.09-0.02c-0.14,0.02-0.18,0.02-0.11,0.02
			c0.05,0.01,0.11,0,0.16-0.01c0.15,0-0.2-0.05-0.04-0.01c0.05,0.01,0.1,0.02,0.14,0.04c0.16,0.05,0.02,0.04-0.03-0.02
			c0.03,0.03,0.11,0.06,0.15,0.08c0.02,0.01,0.04,0.02,0.06,0.04c0.07,0.05,0.05,0.03-0.06-0.05c0.06,0.07,0.15,0.13,0.21,0.2
			c0.02,0.02,0.04,0.05,0.06,0.07c-0.08-0.1-0.1-0.13-0.06-0.07c0.03,0.05,0.06,0.1,0.09,0.14c0.02,0.04,0.05,0.09,0.07,0.13
			c0.01,0.02,0.02,0.05,0.03,0.07c0.03,0.06,0.02,0.03-0.03-0.09c0.01,0.11,0.08,0.23,0.1,0.33c0.01,0.05,0.01,0.1,0.03,0.15
			c-0.02-0.14-0.02-0.17-0.02-0.1c0,0.02,0.01,0.05,0.01,0.07c0.01,0.11,0.01,0.23-0.01,0.35c0.28-0.28,0.57-0.57,0.85-0.85
			c-0.02,0-0.05,0-0.07,0c-0.07-0.01-0.03,0,0.11,0.02c-0.03-0.02-0.08-0.02-0.12-0.03c-0.03-0.01-0.08-0.04-0.11-0.04
			c0.12,0.05,0.15,0.07,0.09,0.04c-0.02-0.01-0.05-0.02-0.06-0.03c-0.05-0.02-0.08-0.05-0.13-0.07c-0.13-0.07,0.11,0.1,0.04,0.03
			c-0.06-0.06-0.12-0.14-0.19-0.19c0.05,0.05,0.11,0.15,0.03,0.03c-0.02-0.03-0.05-0.07-0.06-0.1c-0.01-0.02-0.02-0.05-0.03-0.07
			c-0.03-0.06-0.02-0.03,0.04,0.09c0-0.04-0.03-0.1-0.05-0.14c-0.01-0.04-0.02-0.18-0.01-0.03s0,0.01,0-0.03
			c0-0.03,0.01-0.12,0.01-0.14c0.03,0.06-0.04,0.21,0,0.03c-0.27,0.21-0.55,0.42-0.82,0.63c0.22-0.01-0.16-0.05-0.03-0.01
			c-0.26-0.08-0.1-0.03-0.03,0.01c-0.11-0.09-0.14-0.11-0.1-0.07c0.02,0.01,0.03,0.03,0.04,0.05c-0.09-0.12-0.11-0.15-0.06-0.07
			c0.02,0.02,0.03,0.05,0.04,0.07c-0.06-0.14-0.07-0.17-0.04-0.09c0.01,0.02,0.02,0.05,0.02,0.08c0.04,0.14-0.01-0.22-0.01-0.07
			c-0.01,0.09,0,0.05,0.02-0.11c-0.01,0.02-0.01,0.05-0.02,0.07c0.06-0.14,0.08-0.17,0.03-0.1c-0.01,0.02-0.03,0.05-0.05,0.07
			c0.39-0.1,0.78-0.21,1.17-0.31c-0.02-0.01-0.05-0.03-0.07-0.04c-0.05-0.03-0.03-0.02,0.06,0.05c-0.01-0.01-0.1-0.11-0.12-0.12
			c0.02,0.03,0.05,0.06,0.07,0.09c-0.02-0.03-0.04-0.06-0.06-0.1c0.01,0,0.07,0.21,0.01,0c-0.12-0.43-0.61-0.74-1.05-0.6
			s-0.72,0.59-0.6,1.05c0.08,0.3,0.23,0.58,0.42,0.83c0.1,0.14,0.22,0.28,0.32,0.42c0.14,0.17-0.08-0.11,0.02,0.03
			c0.03,0.05,0.06,0.09,0.1,0.14c0.03,0.05,0.05,0.1,0.08,0.14c0.03,0.06,0.01,0.02-0.05-0.1c0.01,0.03,0.02,0.06,0.03,0.09
			c0.01,0.04,0.02,0.1,0.03,0.13c-0.02-0.15-0.02-0.18-0.02-0.1c0,0.02,0,0.05,0,0.07s0,0.05,0,0.06c-0.01,0.09,0,0.06,0.02-0.1
			c-0.01,0.02-0.03,0.1-0.03,0.12c0.06-0.14,0.07-0.17,0.04-0.1c-0.03,0.05-0.03,0.05,0.02-0.02c0.05-0.06,0.06-0.07,0.02-0.03
			c-0.06,0.06-0.03,0.03,0.08-0.06c-0.12,0.08,0.2-0.06,0.03-0.02c0.07-0.03,0.14-0.03,0.22,0c-0.04-0.01-0.08-0.02-0.12-0.03
			c0.03,0.01,0.06,0.03,0.09,0.04c-0.04-0.02-0.07-0.03-0.11-0.06c-0.05-0.03-0.1-0.06-0.15-0.09c-0.03-0.02-0.06-0.04-0.09-0.06
			c0.1,0.08,0.11,0.09,0.05,0.03c-0.04-0.04-0.08-0.07-0.12-0.11s-0.07-0.08-0.11-0.12c-0.02-0.03-0.05-0.06-0.07-0.09
			c0.08,0.1,0.09,0.11,0.03,0.04c-0.06-0.09-0.12-0.18-0.17-0.28c-0.02-0.03-0.03-0.06-0.05-0.1c-0.04-0.09-0.03-0.07,0.02,0.05
			c-0.01-0.05-0.04-0.11-0.06-0.15c-0.02-0.06-0.03-0.12-0.05-0.19c-0.01-0.05-0.01-0.15-0.03-0.19c0.02,0.12,0.02,0.16,0.02,0.09
			c0-0.03-0.01-0.06-0.01-0.08c-0.01-0.07-0.01-0.15,0-0.22c-0.53,0.14-1.06,0.28-1.59,0.43c0.49,0.69,0.99,1.38,1.48,2.06
			c0.1-0.39,0.2-0.78,0.31-1.17c-0.08,0.04-0.06,0.03,0.07-0.03c-0.03,0.01-0.06,0.02-0.09,0.03c-0.05,0.01-0.1,0.02-0.14,0.03
			c-0.09,0.02-0.06,0.01,0.08-0.01c-0.03,0.01-0.06,0.01-0.1,0.01c-0.05,0-0.1,0-0.15,0c-0.24-0.01,0.13,0.03-0.02,0
			c-0.05-0.01-0.1-0.02-0.14-0.03c-0.06-0.02-0.13-0.06-0.19-0.06c0.04,0.02,0.07,0.03,0.11,0.05c-0.03-0.01-0.06-0.03-0.09-0.05
			c-0.06-0.03-0.11-0.07-0.16-0.1c-0.13-0.09,0.14,0.13,0.02,0.01c-0.05-0.05-0.09-0.09-0.14-0.14c-0.11-0.11,0.1,0.16,0.02,0.02
			c-0.03-0.05-0.06-0.1-0.09-0.15c-0.03-0.06-0.02-0.03,0.03,0.09c-0.01-0.03-0.02-0.06-0.03-0.09c-0.02-0.06-0.03-0.11-0.05-0.16
			c-0.04-0.21,0.01,0.18,0,0.01c0-0.05-0.01-0.1-0.01-0.15c0-0.03,0-0.07,0.01-0.1c0.01-0.09,0.01-0.06-0.01,0.08
			c0.04-0.1,0.05-0.23,0.09-0.33c0.05-0.17-0.1,0.17-0.01,0.02c0.03-0.06,0.07-0.11,0.1-0.17c0.08-0.15-0.13,0.14-0.02,0.02
			c0.05-0.05,0.09-0.09,0.14-0.14c0.11-0.12-0.18,0.11-0.01,0.01c0.07-0.04,0.14-0.09,0.2-0.12c0.05-0.02,0.21-0.12,0.02-0.02
			c0.07-0.03,0.15-0.06,0.23-0.09c0.32-0.11,0.64-0.22,0.94-0.36c0.41-0.18,0.53-0.81,0.31-1.17
			C846.33,225.43,845.88,225.35,845.44,225.55L845.44,225.55z"/>
	</g>
</g>
<g>
	<g>
		<path d="M849.11,232.71c1.14,0.19,2.28,0.37,3.41,0.56c0.55,0.09,1.13,0.22,1.65-0.05c0.53-0.27,0.79-0.81,0.77-1.4
			c-0.03-1.14-0.22-2.29-0.32-3.42c-0.11-1.18-0.23-2.36-0.34-3.54c-0.05-0.46-0.36-0.85-0.85-0.85c-0.43,0-0.9,0.39-0.85,0.85
			c0.19,1.99,0.38,3.97,0.57,5.95c0.02,0.23,0.05,0.45,0.06,0.68c0.01,0.05,0,0.28,0.03,0.33c-0.01,0.03-0.01,0.05,0.01,0.07
			c0.05-0.06,0.1-0.12,0.15-0.18c0.01-0.07,0.12,0.02,0.01-0.03c-0.02-0.01-0.23-0.01-0.13-0.01c-0.24-0.02-0.49-0.08-0.74-0.12
			c-0.99-0.16-1.98-0.32-2.97-0.48c-0.46-0.07-0.92,0.12-1.05,0.6C848.4,232.07,848.65,232.64,849.11,232.71L849.11,232.71z"/>
	</g>
</g>
<g>
	<g>
		<path d="M843.87,232.7c-2.15-0.34-4.3-0.68-6.45-1.02c-0.76-0.12-1.29,0.55-0.96,1.25c0.56,1.22,1.12,2.43,1.67,3.65
			c0.19,0.42,0.8,0.52,1.17,0.31c0.43-0.25,0.5-0.74,0.31-1.17c-0.56-1.22-1.12-2.43-1.67-3.65c-0.32,0.42-0.64,0.84-0.96,1.25
			c2.15,0.34,4.3,0.68,6.45,1.02c0.46,0.07,0.92-0.12,1.05-0.6C844.57,233.35,844.32,232.78,843.87,232.7L843.87,232.7z"/>
	</g>
</g>
<g>
	<g>
		<path d="M845.12,229.84c-1.59-0.93-3.13-1.93-4.64-3c-1.16-0.83-2.62-1.74-2.97-3.22c-0.52,0.22-1.04,0.44-1.56,0.66
			c0.54,0.9,0.84,1.89,0.87,2.95c0.28-0.28,0.57-0.57,0.85-0.85c-0.7,0.04-1.39,0.08-2.09,0.12c-1.09,0.06-1.1,1.76,0,1.71
			c0.69-0.03,1.27-0.28,1.77-0.75c0.49-0.46,0.21-1.23-0.38-1.43c-0.44-0.14-0.75-0.44-0.97-0.84c-0.53-0.96-2-0.1-1.47,0.86
			c0.44,0.79,1.14,1.34,1.99,1.62c-0.13-0.48-0.25-0.95-0.38-1.43c-0.16,0.16-0.34,0.24-0.57,0.25c0,0.57,0,1.14,0,1.71
			c0.7-0.04,1.39-0.08,2.09-0.12c0.45-0.03,0.87-0.37,0.85-0.85c-0.05-1.35-0.41-2.65-1.1-3.81c-0.5-0.84-1.77-0.28-1.56,0.66
			c0.41,1.78,1.92,2.92,3.32,3.93c1.63,1.18,3.33,2.28,5.06,3.3C845.21,231.87,846.07,230.39,845.12,229.84L845.12,229.84z"/>
	</g>
</g>
<g>
	<g>
		<path d="M845.49,226.49c-0.03-0.01-0.07-0.02-0.11-0.04c0.11,0.05,0.13,0.06,0.05,0.02c-0.06-0.03-0.12-0.06-0.18-0.1
			c-0.18-0.11,0.08,0.1-0.03-0.02c-0.02-0.02-0.14-0.16-0.04-0.03c0.1,0.12,0-0.02-0.02-0.05c-0.1-0.19,0.04,0.16,0.01,0.02
			c-0.01-0.04-0.02-0.08-0.03-0.11c-0.04-0.14,0.02,0.24,0.01,0.03c0-0.04,0-0.08,0-0.12c0.01-0.22-0.04,0.17-0.01,0.03
			c0.01-0.04,0.02-0.08,0.03-0.12c0.02-0.09,0.11-0.21-0.02,0.02c0.05-0.08,0.09-0.16,0.14-0.24c-0.13,0.21-0.09,0.11-0.03,0.06
			c0.02-0.02,0.04-0.03,0.06-0.05c0.07-0.06,0.04-0.03-0.08,0.06c0.03-0.02,0.09-0.05,0.12-0.07c0.06-0.03,0.02-0.01-0.11,0.05
			c0.02-0.01,0.05-0.02,0.07-0.02c0.03-0.01,0.06-0.01,0.08-0.02c-0.15,0.02-0.19,0.02-0.12,0.02c0.02,0,0.04,0,0.06,0
			c0.09,0.01,0.06,0-0.1-0.02c0.04,0.02,0.12,0.04,0.16,0.05c-0.07-0.01-0.19-0.09-0.05-0.02c0.02,0.01,0.05,0.03,0.07,0.05
			c0.07,0.05,0.05,0.03-0.07-0.06c0.02,0.03,0.07,0.06,0.09,0.09c0.15,0.16-0.07-0.12,0-0.01c0.02,0.03,0.05,0.07,0.07,0.11
			c0.11,0.19-0.04-0.15,0-0.01c0.01,0.04,0.02,0.08,0.03,0.12c0.04,0.14-0.01-0.24-0.01-0.02c0,0.19,0.03-0.05,0.02-0.06
			c0.02,0.02-0.04,0.13-0.05,0.16c0.06-0.14,0.07-0.17,0.03-0.09c-0.02,0.02-0.03,0.05-0.05,0.07c0.49,0.28,0.98,0.57,1.47,0.86
			c0.53-1.11,0.9-2.7-0.31-3.52c-0.61-0.42-1.46-0.37-2.16-0.3c-0.81,0.09-1.56,0.3-2.32,0.61c-0.25,0.11-0.44,0.47-0.42,0.74
			c0.07,0.73,0.23,1.43,0.72,2.01c0.47,0.56,1.22,0.8,1.93,0.68c0.73-0.12,1.2-0.76,1.28-1.47c0.03-0.31-0.04-0.6-0.18-0.88
			c-0.17-0.35-0.47-0.55-0.82-0.69c0.13,0.07,0.25,0.15,0.38,0.22c-0.48-0.42-1.13-0.47-1.66-0.11c-0.59,0.4-0.75,1.05-0.64,1.72
			c0.03,0.22,0.11,0.43,0.18,0.63c0.09,0.23,0.18,0.48,0.32,0.69c0.31,0.47,0.82,0.82,1.41,0.76c1.13-0.12,1.92-1.35,1.34-2.4
			c-0.46-0.84-1.66-1.09-2.46-0.6c-1.06,0.65-1.09,2.19-0.26,3.04c0.31,0.32,0.9,0.34,1.21,0c0.32-0.35,0.33-0.86,0-1.21
			c-0.01-0.01-0.02-0.02-0.03-0.03c-0.06-0.07-0.05-0.05,0.05,0.06c-0.01-0.03-0.06-0.1-0.07-0.12c-0.07-0.11,0.03,0.05,0.03,0.07
			c0-0.03-0.03-0.1-0.05-0.14c-0.02-0.09,0.01-0.18,0,0.03c0-0.03-0.01-0.06-0.01-0.1c0-0.05,0.01-0.1,0.01-0.14
			c-0.02,0.15-0.02,0.18-0.01,0.09c0.01-0.03,0.02-0.06,0.02-0.09c0.02-0.1,0.05,0-0.03,0.07c0.01-0.01,0.07-0.11,0.07-0.12
			c-0.01,0.1-0.12,0.14-0.03,0.05c0.08-0.07,0.08-0.01-0.06,0.04c0.03-0.01,0.09-0.05,0.11-0.06c-0.14,0.11-0.16,0.06-0.07,0.03
			c0.03-0.01,0.07-0.01,0.1-0.02c-0.16,0.02-0.19,0.02-0.1,0.02c0.03,0,0.06,0,0.09,0c0.02,0,0.06,0.01,0.09,0.01
			c-0.2,0.02-0.16-0.03-0.06,0c0.04,0.01,0.08,0.03,0.12,0.04c-0.21-0.05-0.15-0.07-0.1-0.03c0.09,0.06,0.08,0.1-0.04-0.05
			c0.02,0.02,0.06,0.07,0.09,0.09c-0.14-0.09-0.1-0.15-0.06-0.08c0.1,0.19-0.05-0.16,0-0.02c0.05,0.16-0.01-0.22-0.01-0.06
			c0,0.1-0.05,0.02,0.02-0.1c-0.01,0.01-0.01,0.03-0.01,0.04c-0.03,0.09-0.01,0.06,0.04-0.08c-0.02,0.03-0.05,0.08-0.06,0.11
			c-0.05,0.08-0.05-0.01,0.05-0.07c-0.02,0.01-0.08,0.07-0.1,0.09c0.08-0.12,0.14-0.1,0.05-0.05c-0.16,0.1,0.18-0.05,0.03-0.01
			c-0.15,0.04,0.22,0.01,0.06-0.01c-0.13-0.01,0.1,0.02,0.1,0.02c-0.01-0.01-0.03-0.01-0.04-0.01c-0.09-0.03-0.06-0.01,0.09,0.04
			c-0.16-0.09,0.13,0.14,0.01,0.01c0.01,0.01-0.07-0.07-0.07-0.07c0.02,0.03,0.05,0.06,0.07,0.09c-0.02-0.03-0.04-0.06-0.06-0.09
			c-0.03-0.05-0.05-0.1-0.07-0.14c-0.09-0.17,0.07,0.18,0,0.01c-0.04-0.11-0.09-0.23-0.12-0.34c-0.03-0.09-0.09-0.22-0.08-0.31
			c0.01,0.03,0.01,0.07,0.02,0.1c-0.01-0.04-0.01-0.09,0-0.12c-0.01,0.02-0.01,0.03-0.01,0.05c-0.01,0.07-0.01,0.07,0.01-0.01
			c0.01-0.02,0.01-0.04,0.02-0.06c-0.06,0.14-0.07,0.17-0.03,0.09c-0.09,0.11-0.11,0.14-0.05,0.07c0.05-0.05,0.04-0.04-0.02,0.01
			c-0.14,0.09,0.01,0.01,0.02-0.01c-0.04,0.02-0.09,0.03-0.13,0.05c0.03-0.01,0.05-0.02,0.08-0.02c-0.05,0.01-0.1,0.01-0.15,0.02
			c0.06,0,0.05,0-0.03-0.01c-0.02-0.01-0.05-0.01-0.07-0.01c0.09,0.02,0.05,0.01-0.1-0.04c-0.03-0.03-0.07-0.06-0.11-0.09
			c0.11,0.11,0.23,0.18,0.38,0.22c-0.24-0.1-0.15-0.07-0.1-0.04c-0.04-0.03-0.07-0.06-0.11-0.09c0.02,0.02,0.03,0.03,0.05,0.05
			c-0.09-0.12-0.11-0.15-0.07-0.09c0.01,0.02,0.02,0.05,0.03,0.06c-0.02,0.01-0.07-0.22-0.05-0.1c0.02,0.11-0.02,0.1-0.01-0.08
			c-0.01,0.03,0,0.08,0,0.11c0,0.08-0.06,0.07,0.02-0.11c-0.01,0.03-0.02,0.08-0.03,0.11c-0.04,0.15,0.1-0.19,0.02-0.06
			c-0.04,0.07-0.06,0.03,0.07-0.08c-0.02,0.02-0.03,0.04-0.05,0.06c-0.06,0.06-0.03,0.03,0.08-0.06c-0.01,0-0.18,0.09-0.03,0.02
			c0.15-0.06-0.07,0-0.09,0.01c0.05-0.01,0.09-0.01,0.13-0.02c-0.03,0-0.07,0-0.1,0c-0.07-0.01-0.07,0,0.02,0.01
			c0.08,0.01,0.09,0.01,0.02,0c-0.05-0.01-0.1-0.03-0.15-0.04c-0.16-0.05,0.18,0.09-0.01-0.01c-0.02-0.01-0.09-0.07-0.11-0.07
			c0.1,0.09,0.12,0.1,0.05,0.04c-0.02-0.02-0.05-0.05-0.07-0.07s-0.05-0.06-0.07-0.08c0.07,0.1,0.09,0.11,0.03,0.03
			c-0.02-0.03-0.04-0.06-0.06-0.1c-0.02-0.04-0.04-0.09-0.06-0.12c-0.03-0.06-0.02-0.03,0.03,0.07c-0.01-0.03-0.03-0.07-0.04-0.11
			c-0.03-0.11-0.06-0.22-0.09-0.34c-0.01-0.03-0.05-0.15-0.03-0.17c0.02,0.13,0.02,0.15,0.01,0.05c-0.01-0.04-0.01-0.08-0.01-0.11
			c-0.14,0.24-0.28,0.49-0.42,0.73c-0.2,0.09,0.03-0.01,0.07-0.03c0.07-0.03,0.15-0.05,0.22-0.08c0.13-0.05,0.25-0.08,0.38-0.11
			c0.15-0.04,0.3-0.07,0.45-0.11c0.06-0.01,0.13-0.02,0.19-0.03c0.05-0.01,0.09-0.02,0.13-0.02c-0.03,0.01-0.06,0.01-0.1,0.01
			c0.28-0.06,0.58-0.05,0.86-0.05c0.09,0,0.16,0,0.25,0.01c0.02,0,0.04,0,0.06,0.01c0.1,0.01,0.08,0.01-0.05-0.01
			c0.04,0.02,0.13,0.03,0.17,0.04c0.17,0.04-0.16-0.09,0.03,0.02c0.16,0.09-0.11-0.12-0.02-0.02c0.03,0.03,0.06,0.06,0.09,0.09
			c-0.14-0.12-0.09-0.12-0.05-0.04c0.01,0.02,0.02,0.05,0.03,0.07c-0.06-0.14-0.07-0.17-0.05-0.11c0.01,0.05,0.03,0.1,0.04,0.14
			c0.04,0.14-0.01-0.22-0.01-0.06c0.01,0.1,0,0.19,0,0.29c-0.01,0.21,0.03-0.18,0.01-0.02c-0.01,0.05-0.02,0.1-0.03,0.14
			c-0.02,0.1-0.05,0.21-0.08,0.31c-0.03,0.1-0.07,0.2-0.1,0.3c-0.06,0.16,0.08-0.17,0.01-0.03c-0.03,0.06-0.05,0.11-0.08,0.16
			c-0.19,0.4-0.13,0.94,0.31,1.17s0.89,0.09,1.17-0.31c0.39-0.55,0.32-1.29,0.02-1.87c-0.31-0.59-0.91-0.98-1.57-1.05
			c-0.67-0.07-1.26,0.32-1.63,0.85c-0.33,0.48-0.41,1.11-0.3,1.67c0.16,0.8,0.82,1.27,1.55,1.52c0.42,0.15,0.95-0.17,1.05-0.6
			C846.2,227.07,845.95,226.65,845.49,226.49L845.49,226.49z"/>
	</g>
</g>
<g>
	<g>
		<path d="M844.77,222.94c-0.17,0.07-0.34,0.13-0.51,0.18c-0.1,0.03-0.2,0.05-0.3,0.07c-0.05,0.01-0.09,0.02-0.14,0.02
			c-0.13,0.03,0.15-0.01,0.02,0c-0.18,0.02-0.36,0.03-0.55,0.03c-0.09,0-0.18-0.01-0.27-0.01c-0.05-0.01-0.09-0.01-0.14-0.01
			c-0.02,0-0.05-0.01-0.07-0.01c-0.06-0.01-0.05-0.01,0.06,0.01c-0.06,0.02-0.2-0.03-0.27-0.05c-0.09-0.02-0.18-0.04-0.27-0.06
			c-0.18-0.05-0.35-0.11-0.52-0.18c0.17,0.07-0.05-0.03-0.11-0.06c-0.09-0.05-0.18-0.1-0.27-0.15c-0.08-0.05-0.15-0.1-0.23-0.15
			c-0.04-0.03-0.07-0.05-0.11-0.08c-0.1-0.07,0.15,0.12-0.02-0.01c-0.34-0.28-0.88-0.36-1.21,0c-0.29,0.31-0.37,0.9,0,1.21
			c1.46,1.2,3.54,1.63,5.32,0.89c0.41-0.17,0.75-0.57,0.6-1.05C845.69,223.15,845.21,222.76,844.77,222.94L844.77,222.94z"/>
	</g>
</g>
<g>
	<g>
		<path d="M844.7,223.15c-0.01-0.01-0.14-0.06-0.13-0.07c-0.01,0.02,0.2,0.15,0.05,0.02c-0.05-0.05,0.09,0.1,0.08,0.1
			c0,0-0.03-0.06-0.04-0.06c-0.03-0.06-0.02-0.13,0.04,0.1c-0.01-0.02-0.02-0.05-0.02-0.07c-0.03-0.09-0.01-0.22-0.01,0.05
			c0-0.05-0.01-0.09-0.01-0.13c0-0.02-0.01-0.13,0.01-0.14s-0.05,0.24-0.01,0.11c0.01-0.02,0.01-0.05,0.02-0.07
			c0.02-0.1,0.11-0.19-0.02,0.02c0.02-0.04,0.04-0.08,0.06-0.12c0.01-0.02,0.03-0.05,0.04-0.07c0.04-0.07-0.07,0.11-0.07,0.1
			c-0.01-0.02,0.2-0.19,0.05-0.07c-0.13,0.1,0.02-0.01,0.05-0.03c0.03-0.02,0.07-0.03,0.09-0.05c0,0-0.17,0.06-0.09,0.04
			c0.06-0.01,0.11-0.03,0.17-0.05c0.14-0.03-0.06,0.02-0.07,0.01c0.03,0.01,0.1-0.01,0.13-0.01c0.05,0,0.14,0.02,0.18,0.01
			c-0.01,0.01-0.22-0.04-0.07-0.01c0.03,0.01,0.05,0.01,0.08,0.02c0.06,0.01,0.12,0.03,0.18,0.05c0.03,0.01,0.07,0.02,0.1,0.03
			c0.15,0.05-0.13-0.06-0.03-0.02c0.12,0.06,0.23,0.12,0.35,0.2c0.02,0.02,0.04,0.03,0.06,0.05c0.09,0.06-0.13-0.11-0.06-0.04
			c0.05,0.05,0.1,0.09,0.14,0.13c0.04,0.04,0.08,0.08,0.11,0.12c0.05,0.05,0.15,0.23,0.02,0.01c0.06,0.1,0.14,0.2,0.19,0.3
			c0.03,0.05,0.05,0.1,0.08,0.15c0.01,0.02,0.02,0.06,0.04,0.09c-0.01-0.01-0.08-0.2-0.03-0.07c0.04,0.12,0.08,0.24,0.11,0.36
			c0.01,0.06,0.02,0.12,0.03,0.19c-0.01-0.01-0.02-0.23-0.01-0.09c0,0.03,0.01,0.06,0.01,0.1c0.01,0.07,0.01,0.14,0,0.21
			c0,0.05-0.02,0.25,0,0.1c0.02-0.17-0.02,0.07-0.03,0.11c-0.02,0.06-0.03,0.12-0.05,0.18c-0.01,0.03-0.02,0.06-0.03,0.09
			c0.01-0.03,0.09-0.18,0.03-0.07c-0.03,0.07-0.07,0.14-0.11,0.21c-0.24,0.38-0.09,0.96,0.31,1.17c0.42,0.22,0.92,0.1,1.17-0.31
			c0.8-1.28,0.42-3.03-0.63-4.04c-0.57-0.56-1.4-0.96-2.21-0.91c-0.88,0.05-1.6,0.55-1.89,1.39c-0.27,0.78,0.01,1.79,0.79,2.17
			c0.4,0.19,0.94,0.12,1.17-0.31C845.2,223.93,845.12,223.35,844.7,223.15L844.7,223.15z"/>
	</g>
</g>
<g>
	<g>
		<path d="M847.17,223.21c0.02-0.94-0.96-1.7-1.87-1.42c-0.37,0.11-0.61,0.44-0.63,0.82c-0.02,0.76,0.11,1.54,0.4,2.24
			c0.16,0.4,0.48,0.67,0.94,0.61c0.42-0.06,0.75-0.41,0.74-0.84c-0.01-0.93-0.55-1.75-1.33-2.22c-0.79-0.48-1.76-0.55-2.59-0.12
			c-0.4,0.2-0.55,0.8-0.31,1.17c0.27,0.42,0.73,0.51,1.17,0.31c0.21-0.1,0.42-0.19,0.63-0.29c0.32-0.15,0.5-0.63,0.39-0.96
			c-0.13-0.38-0.43-0.59-0.82-0.63c-0.26-0.02-0.52-0.05-0.79-0.07c-0.44-0.04-0.87,0.42-0.85,0.85c0.02,0.49,0.38,0.81,0.85,0.85
			c0.26,0.02,0.52,0.05,0.79,0.07c-0.14-0.53-0.28-1.06-0.43-1.59c-0.21,0.1-0.42,0.19-0.63,0.29c0.28,0.49,0.57,0.98,0.86,1.47
			c0.08-0.04,0.16-0.04-0.06,0.02c0.03-0.01,0.06-0.02,0.09-0.03c0.02-0.01,0.2-0.06,0.2-0.05s-0.26,0.02-0.09,0.01
			c0.03,0,0.06-0.01,0.1-0.01c0.06,0,0.13,0.01,0.19,0.01c0.15,0.01-0.22-0.05-0.07-0.01c0.03,0.01,0.06,0.01,0.1,0.02
			c0.07,0.02,0.14,0.03,0.2,0.06c0.03,0.01,0.06,0.02,0.09,0.03c0.1,0.03-0.2-0.1-0.08-0.03c0.06,0.03,0.13,0.07,0.19,0.1
			c0.03,0.02,0.06,0.03,0.09,0.05s0.13,0.1,0.01,0s-0.02-0.02,0.01,0.01c0.03,0.02,0.06,0.05,0.09,0.08
			c0.05,0.05,0.09,0.1,0.14,0.14c0.1,0.11-0.12-0.18-0.04-0.05c0.02,0.03,0.04,0.05,0.06,0.08c0.04,0.06,0.07,0.12,0.1,0.19
			c0.06,0.1-0.04-0.1-0.04-0.1c0.01,0.01,0.03,0.1,0.04,0.11c0.02,0.06,0.03,0.12,0.05,0.19c0.03,0.15-0.01-0.22-0.01-0.07
			c0,0.04,0.01,0.08,0.01,0.12c0.56-0.07,1.12-0.15,1.68-0.23c-0.13-0.31-0.22-0.63-0.28-0.96c-0.01-0.04-0.01-0.08-0.02-0.11
			c-0.02-0.11,0.01,0.01,0.01,0.05c0-0.07-0.02-0.16-0.02-0.23c-0.01-0.18-0.02-0.35-0.01-0.53c-0.21,0.27-0.42,0.55-0.63,0.83
			c0.15-0.05-0.22,0-0.07,0.01c0.13,0.01-0.11-0.02-0.11-0.02c0.02,0.01,0.04,0.01,0.06,0.02c0.06,0.02,0.03,0.01-0.11-0.05
			c0.02,0.02,0.14,0.1,0.02,0c-0.14-0.11,0.01,0,0.01,0.02c0-0.01-0.12-0.2-0.05-0.06c0.05,0.09-0.07-0.21-0.03-0.07
			s-0.01-0.22-0.01-0.06c-0.01,0.45,0.4,0.88,0.85,0.85C846.79,224.05,847.16,223.69,847.17,223.21L847.17,223.21z"/>
	</g>
</g>
<g>
	<g>
		<path d="M844.11,223.65c0.02-0.03,0.04-0.06,0.06-0.09c-0.05,0.06-0.09,0.11-0.13,0.17c0.06-0.07,0.13-0.14,0.2-0.21
			c-0.06,0.05-0.11,0.09-0.17,0.13c0.08-0.06,0.17-0.11,0.26-0.15c-0.07,0.03-0.14,0.06-0.2,0.09c0.1-0.04,0.2-0.07,0.31-0.09
			c-0.07,0.01-0.15,0.02-0.23,0.03c0.08-0.01,0.16-0.01,0.24-0.01c0.12,0.01,0.23-0.02,0.33-0.07c0.11-0.03,0.2-0.09,0.27-0.18
			c0.09-0.08,0.14-0.17,0.18-0.27c0.05-0.1,0.08-0.21,0.07-0.33c-0.01-0.22-0.08-0.45-0.25-0.6c-0.06-0.05-0.11-0.09-0.17-0.13
			c-0.13-0.08-0.28-0.11-0.43-0.11c-0.06-0.01-0.11-0.01-0.17,0c-0.13,0.01-0.26,0.02-0.38,0.05c-0.17,0.03-0.34,0.11-0.5,0.19
			s-0.3,0.19-0.43,0.31c-0.04,0.03-0.08,0.07-0.11,0.11c-0.08,0.1-0.16,0.19-0.23,0.3c-0.06,0.1-0.1,0.21-0.1,0.32
			c-0.02,0.11-0.02,0.23,0.02,0.34c0.03,0.11,0.08,0.21,0.15,0.29c0.06,0.09,0.14,0.17,0.24,0.22c0.2,0.1,0.44,0.16,0.66,0.09
			C843.82,223.98,843.99,223.85,844.11,223.65L844.11,223.65z"/>
	</g>
</g>
<g>
	<g>
		<path d="M886.16,321.11c-0.34-1.14,0.1-2.28,0.4-3.38c0.28-1.02,0.47-2.07,0.46-3.13c-0.01-2.11-0.64-4.2-1.81-5.95
			c-0.61-0.91-2.09-0.06-1.47,0.86c1.13,1.68,1.68,3.65,1.56,5.68c-0.13,2.15-1.44,4.18-0.79,6.36
			C884.83,322.61,886.48,322.17,886.16,321.11L886.16,321.11z"/>
	</g>
</g>
<g>
	<g>
		<path d="M891.85,316.8c0.05-3.09,0.18-7.13,3.39-8.69c0.99-0.48,0.13-1.95-0.86-1.47c-3.79,1.85-4.18,6.47-4.23,10.17
			C890.13,317.9,891.84,317.9,891.85,316.8L891.85,316.8z"/>
	</g>
</g>
<g>
	<g>
		<path d="M903.79,317.67c-1-4.32,1.22-8.72-0.09-13.03c-0.32-1.05-1.96-0.6-1.64,0.45c0.64,2.12,0.36,4.32,0.09,6.48
			c-0.27,2.19-0.51,4.38-0.01,6.55C902.39,319.19,904.04,318.74,903.79,317.67L903.79,317.67z"/>
	</g>
</g>
<g>
	<g>
		<path d="M918.35,319.47c0.03-1.95,0.85-3.83,2.28-5.17c1.46-1.37,3.48-2.01,5.46-1.87c0.46,0.03,0.85-0.42,0.85-0.85
			c0-0.49-0.39-0.82-0.85-0.85c-2.43-0.17-4.89,0.71-6.67,2.37c-1.75,1.63-2.74,3.99-2.77,6.37
			C916.63,320.57,918.33,320.57,918.35,319.47L918.35,319.47z"/>
	</g>
</g>
<g>
	<g>
		<path d="M915.81,317.37c-2.06-5.5-4.12-11-6.18-16.5c-0.38-1.02-2.03-0.58-1.64,0.46c2.06,5.5,4.12,11,6.18,16.5
			C914.55,318.84,916.2,318.39,915.81,317.37L915.81,317.37z"/>
	</g>
</g>
<g>
	<g>
		<path d="M933.21,319.72c1.67-4.88,4.08-9.47,7.11-13.63c0.65-0.89-0.83-1.74-1.47-0.86c-3.12,4.28-5.57,9.02-7.29,14.04
			C931.21,320.31,932.86,320.76,933.21,319.72L933.21,319.72z"/>
	</g>
</g>
<g>
	<g>
		<path d="M950.93,313.04c-0.69-1.82-1.03-3.72-0.94-5.67c0.09-1.96,0.83-3.8,0.92-5.75c0.05-1.1-1.66-1.09-1.71,0
			c-0.05,1-0.32,1.95-0.54,2.91c-0.22,1-0.36,2.03-0.39,3.06c-0.06,2.01,0.3,4.03,1.01,5.91
			C949.67,314.51,951.32,314.07,950.93,313.04L950.93,313.04z"/>
	</g>
</g>
<g>
	<g>
		<path d="M965.62,311.07c-0.86-3.73-1.54-7.52-1.93-11.33c-0.05-0.46-0.36-0.85-0.85-0.85c-0.43-0.01-0.9,0.4-0.85,0.85
			c0.4,3.96,1.09,7.9,1.99,11.78C964.22,312.59,965.87,312.14,965.62,311.07L965.62,311.07z"/>
	</g>
</g>
<g>
	<g>
		<path d="M962.28,310.1c-1.26-1.69-2.65-3.27-4.19-4.69c-1.45-1.34-3.28-3.18-5.44-2.71c-1.08,0.23-0.62,1.88,0.46,1.64
			c0.75-0.16,1.5,0.36,2.05,0.79c0.72,0.55,1.4,1.17,2.06,1.79c1.31,1.24,2.52,2.58,3.6,4.03c0.27,0.37,0.74,0.56,1.17,0.31
			C962.33,311.06,962.55,310.48,962.28,310.1L962.28,310.1z"/>
	</g>
</g>
<g>
	<g>
		<path d="M957.62,312.02c-0.16-0.16-0.32-0.34-0.47-0.51c-0.04-0.05-0.07-0.09-0.11-0.14c-0.18-0.22,0.04,0.06-0.05-0.07
			c-0.07-0.09-0.14-0.19-0.2-0.28c-0.27-0.39-0.51-0.81-0.72-1.24c-0.05-0.1-0.1-0.21-0.14-0.32c0.03,0.09,0,0-0.01-0.03
			c-0.02-0.05-0.04-0.11-0.06-0.17c-0.08-0.22-0.15-0.44-0.22-0.66c-0.07-0.24-0.13-0.48-0.18-0.72c-0.02-0.11-0.05-0.23-0.06-0.34
			c0-0.02-0.03-0.18-0.02-0.1c0.01,0.09-0.02-0.15-0.02-0.15c-0.05-0.44-0.36-0.88-0.85-0.85c-0.42,0.02-0.9,0.38-0.85,0.85
			c0.24,2.23,1.19,4.31,2.76,5.92c0.31,0.32,0.9,0.34,1.21,0C957.93,312.88,957.95,312.36,957.62,312.02L957.62,312.02z"/>
	</g>
</g>
<g>
	<g>
		<path d="M951.89,315.29c-0.86-1.97-1.62-4-2.25-6.06c-0.14-0.44-0.6-0.72-1.05-0.6c-0.43,0.12-0.73,0.61-0.6,1.05
			c0.68,2.2,1.5,4.36,2.42,6.46c0.19,0.42,0.8,0.52,1.17,0.31C952.02,316.21,952.08,315.72,951.89,315.29L951.89,315.29z"/>
	</g>
</g>
<g>
	<g>
		<path d="M943.68,318.97c-0.6-2.3-1.42-5.41,0.2-7.49c0.28-0.36,0.35-0.85,0-1.21c-0.3-0.3-0.92-0.36-1.21,0
			c-2.07,2.67-1.43,6.12-0.64,9.15C942.31,320.48,943.96,320.03,943.68,318.97L943.68,318.97z"/>
	</g>
</g>
<g>
	<g>
		<path d="M936.36,319.81c1.27-2.82,3.02-5.39,5.19-7.61c0.77-0.78-0.43-1.99-1.21-1.21c-2.26,2.3-4.12,5-5.46,7.95
			c-0.19,0.42-0.12,0.92,0.31,1.17C935.55,320.32,936.16,320.23,936.36,319.81L936.36,319.81z"/>
	</g>
</g>
<g>
	<g>
		<path d="M930.53,321.63c-1.09-1.65-0.83-3.66-0.38-5.48c0.55-2.23,1.28-4.43,1.93-6.63c0.31-1.06-1.34-1.51-1.64-0.45
			c-0.71,2.4-1.55,4.8-2.07,7.25c-0.44,2.09-0.52,4.34,0.69,6.19C929.66,323.41,931.13,322.55,930.53,321.63L930.53,321.63z"/>
	</g>
</g>
<g>
	<g>
		<path d="M924.88,320.55c-0.3-3.87-2.86-7.29-6.49-8.69c-0.43-0.17-0.94,0.18-1.05,0.6c-0.13,0.48,0.17,0.88,0.6,1.05
			c2.87,1.1,4.99,3.99,5.23,7.04c0.03,0.46,0.36,0.85,0.85,0.85C924.46,321.4,924.92,321.01,924.88,320.55L924.88,320.55z"/>
	</g>
</g>
<g>
	<g>
		<path d="M909.44,316.94c0.05-0.15,0.09-0.29,0.14-0.43c0.03-0.08,0.06-0.15,0.09-0.23c0.02-0.05,0.07-0.18,0.02-0.06
			c0.12-0.28,0.26-0.55,0.4-0.81c0.15-0.27,0.31-0.52,0.49-0.77c0.04-0.06,0.08-0.11,0.12-0.17c0.02-0.03,0.05-0.07,0.07-0.1
			c-0.04,0.05-0.04,0.06-0.01,0.01c0.1-0.12,0.19-0.23,0.3-0.35c0.83-0.94,1.64-1.54,2.8-2.07c0.42-0.19,0.52-0.8,0.31-1.17
			c-0.25-0.43-0.75-0.5-1.17-0.31c-2.5,1.14-4.42,3.4-5.22,6.01c-0.13,0.43,0.15,0.95,0.6,1.05
			C908.85,317.64,909.3,317.4,909.44,316.94L909.44,316.94z"/>
	</g>
</g>
<g>
	<g>
		<path d="M906.88,315.68c0.16-2.63-0.86-5.33-2.75-7.18s-4.59-2.83-7.22-2.63c-0.46,0.03-0.85,0.36-0.85,0.85
			c0,0.43,0.39,0.89,0.85,0.85c2.21-0.17,4.43,0.57,6.02,2.13s2.38,3.77,2.25,5.97C905.1,316.78,906.81,316.77,906.88,315.68
			L906.88,315.68z"/>
	</g>
</g>
<g>
	<g>
		<path d="M897.92,316.02c1.14-0.86,1.02-2.24,0.59-3.46c-0.51-1.47-1.02-2.94-1.54-4.41c-0.15-0.43-0.59-0.72-1.05-0.6
			c-0.42,0.11-0.75,0.61-0.6,1.05c0.44,1.26,0.88,2.51,1.31,3.77c0.18,0.5,0.38,1,0.47,1.53c-0.01-0.09,0.02,0.21,0.02,0.24
			s-0.01,0.28,0.01,0.13c-0.01,0.04-0.1,0.32-0.05,0.2c-0.02,0.05-0.06,0.1-0.03,0.07c-0.37,0.28-0.56,0.73-0.31,1.17
			C896.96,316.08,897.55,316.3,897.92,316.02L897.92,316.02z"/>
	</g>
</g>
<g>
	<g>
		<path d="M882.16,314.36c0.42-2.5-0.31-4.95-0.1-7.46c0.13-1.58,0.82-3.49,2.47-4.01c1.04-0.33,0.6-1.98-0.46-1.64
			c-2.05,0.65-3.21,2.59-3.59,4.62c-0.49,2.68,0.48,5.37,0.03,8.04C880.33,314.98,881.98,315.44,882.16,314.36L882.16,314.36z"/>
	</g>
</g>
<g>
	<g>
		<path d="M876.05,308.66c0.05-3.95-0.95-7.87-2.89-11.32c-0.54-0.96-2.01-0.1-1.47,0.86c1.79,3.19,2.7,6.8,2.66,10.46
			C874.34,309.75,876.04,309.75,876.05,308.66L876.05,308.66z"/>
	</g>
</g>
<g>
	<g>
		<path d="M865.39,309.32c1.37-1.6,1.48-3.67,1.19-5.67c-0.33-2.33-1.07-4.59-2-6.75c-0.18-0.43-0.8-0.51-1.17-0.31
			c-0.44,0.25-0.49,0.74-0.31,1.17c0.8,1.86,1.4,3.83,1.75,5.83c0.26,1.47,0.37,3.3-0.67,4.52
			C863.48,308.95,864.68,310.16,865.39,309.32L865.39,309.32z"/>
	</g>
</g>
<g>
	<g>
		<path d="M861.76,311.41c-1.91-3.36-3.34-6.92-4.36-10.66c-0.82-3.01-1.69-6.17-4.33-8.11c-0.89-0.65-1.74,0.83-0.86,1.47
			c2.46,1.8,3.01,5.21,3.79,7.95c1.02,3.56,2.47,6.99,4.29,10.21C860.83,313.23,862.3,312.38,861.76,311.41L861.76,311.41z"/>
	</g>
</g>
<g>
	<g>
		<path d="M865.86,309.14c1.52-3.27,3.86-6.13,6.82-8.2c0.38-0.26,0.55-0.74,0.31-1.17c-0.22-0.37-0.79-0.57-1.17-0.31
			c-3.19,2.24-5.79,5.27-7.43,8.82c-0.19,0.42-0.12,0.92,0.31,1.17C865.06,309.67,865.67,309.57,865.86,309.14L865.86,309.14z"/>
	</g>
</g>
<g>
	<g>
		<path d="M872.3,310.76c0.85-1.23,1.6-2.54,2.24-3.9c0.19-0.4,0.13-0.94-0.31-1.17c-0.38-0.2-0.97-0.12-1.17,0.31
			c-0.64,1.36-1.38,2.66-2.24,3.9c-0.26,0.37-0.08,0.96,0.31,1.17C871.57,311.3,872.03,311.15,872.3,310.76L872.3,310.76z"/>
	</g>
</g>
<g>
	<g>
		<path d="M859.44,307.42c-0.46-0.35-1.06-0.8-1.22-1.33c-0.06-0.19-0.03-0.4,0.09-0.61c0.15-0.27,0.39-0.49,0.62-0.7
			c1.29-1.15,2.68-2.22,4.01-3.32c0.36-0.3,0.3-0.9,0-1.21c-0.35-0.35-0.85-0.3-1.21,0c-0.79,0.65-1.59,1.31-2.38,1.96
			c-0.71,0.58-1.51,1.13-2.1,1.83c-0.62,0.72-0.96,1.65-0.64,2.59c0.28,0.84,0.95,1.46,1.63,1.99c0.36,0.28,0.85,0.35,1.21,0
			C859.73,308.33,859.81,307.7,859.44,307.42L859.44,307.42z"/>
	</g>
</g>
<g>
	<g>
		<path d="M850.86,310.99c0.59-0.89,0.4-2.01,1.15-2.8c0.77-0.83,1.54-1.62,2.22-2.53c1.35-1.8,2.38-3.82,3.08-5.96
			c0.34-1.05-1.3-1.5-1.64-0.45c-0.67,2.04-1.68,3.97-3,5.67c-0.64,0.83-1.42,1.52-2.09,2.33c-0.36,0.44-0.63,0.91-0.76,1.47
			c-0.12,0.48-0.14,0.99-0.42,1.42C848.78,311.05,850.26,311.9,850.86,310.99L850.86,310.99z"/>
	</g>
</g>
<g>
	<g>
		<path d="M847.87,307.22c0.88-2.2,0.36-4.57,0.88-6.84c0.46-1.99,1.8-3.63,3.6-4.58c-0.42-0.17-0.84-0.34-1.25-0.51
			c0.83,4.11-2.5,7.33-4.81,10.3c-0.46,0.59-0.07,1.74,0.83,1.43c3.26-1.15,6.25-2.84,8.91-5.05c-0.48-0.28-0.95-0.55-1.43-0.83
			c-0.16,0.96-0.91,1.47-1.71,1.92c-0.87,0.5-1.79,0.9-2.6,1.49c-1.89,1.37-3.56,3.45-4.69,5.5c-0.58,1.05,0.13,2.09,1.31,1.96
			c0.67-0.07,1.33-0.34,1.96-0.54c0.65-0.2,1.31-0.4,1.96-0.61c2.74-0.88,5.44-1.86,8.11-2.92c-0.28-0.48-0.55-0.95-0.83-1.43
			c-0.34,0.33-0.68,0.66-1.02,0.99c-0.79,0.77,0.42,1.97,1.21,1.21c0.34-0.33,0.68-0.66,1.02-0.99c0.57-0.56-0.01-1.75-0.83-1.43
			c-2.38,0.94-4.78,1.82-7.2,2.62c-1.21,0.4-2.43,0.79-3.66,1.15c-0.18,0.06-0.68,0.1-0.79,0.23c-0.29,0.05-0.19,0.22,0.28,0.52
			c0.06-0.1,0.13-0.19,0.19-0.29c0.3-0.45,0.61-0.9,0.92-1.35c1.23-1.73,2.62-3.12,4.5-4.1c1.48-0.77,3.19-1.67,3.5-3.48
			c0.15-0.86-0.75-1.39-1.43-0.83c-2.42,2-5.19,3.56-8.16,4.61c0.28,0.47,0.55,0.95,0.83,1.43c1.41-1.81,2.99-3.58,4.15-5.56
			c1.15-1.97,1.56-4.16,1.11-6.4c-0.11-0.56-0.8-0.75-1.25-0.51c-1.99,1.05-3.52,2.85-4.21,4.99c-0.79,2.42-0.11,5.07-1.05,7.45
			C845.82,307.79,847.47,308.23,847.87,307.22L847.87,307.22z"/>
	</g>
</g>
<g>
	<g>
		<path d="M825.04,303.72c-0.56-0.66-0.99-1.44-1.26-2.26c-0.3-0.9-0.36-1.75-0.39-2.68c-0.04-1-0.36-2.04-1.39-2.38
			c-0.85-0.28-1.89,0.07-2.13,1c-0.27,1.06,1.37,1.52,1.64,0.46c0.04-0.16-0.05,0.06-0.07,0.1c-0.02,0.02-0.05,0.04-0.07,0.06
			c0.07-0.04,0.07-0.04,0.01-0.01s-0.06,0.03,0.02,0c-0.03,0.01-0.06,0.01-0.09,0.01c0.05,0,0.24,0.03,0.06-0.01
			c0.02,0.01,0.21,0.06,0.1,0.02c-0.1-0.04,0.08,0.05,0.09,0.06c-0.11-0.07-0.01,0.02,0.01,0.05c0.14,0.34,0.11,0.66,0.12,1.04
			c0.01,0.43,0.04,0.85,0.1,1.28c0.23,1.67,0.97,3.21,2.05,4.49c0.3,0.35,0.9,0.31,1.21,0
			C825.39,304.58,825.34,304.08,825.04,303.72L825.04,303.72z"/>
	</g>
</g>
<g>
	<g>
		<path d="M820.91,306.28c-2.38-3.47-4.7-7-7.17-10.4c-2.01-2.76-5.02-5.47-8.7-4.48c-1.06,0.28-0.61,1.93,0.46,1.64
			c3.34-0.9,5.81,2.27,7.46,4.67c2.17,3.14,4.32,6.29,6.49,9.43C820.05,308.05,821.53,307.19,820.91,306.28L820.91,306.28z"/>
	</g>
</g>
<g>
	<g>
		<path d="M809.67,305.04c-5.42-5.22-11.79-9.34-18.76-12.17c-1.02-0.42-1.46,1.23-0.46,1.64c6.68,2.72,12.81,6.73,18.01,11.74
			C809.26,307.01,810.47,305.81,809.67,305.04L809.67,305.04z"/>
	</g>
</g>
<g>
	<g>
		<path d="M790.52,299.58c-4.21-2.55-8.52-4.92-12.93-7.11c-0.98-0.48-1.85,0.98-0.86,1.47c4.41,2.18,8.73,4.56,12.93,7.11
			C790.6,301.62,791.46,300.15,790.52,299.58L790.52,299.58z"/>
	</g>
</g>
<g>
	<g>
		<path d="M781.61,302.89c4.56-3.07,7.55-7.99,8.24-13.44c0.06-0.46-0.43-0.85-0.85-0.85c-0.51-0.01-0.8,0.4-0.85,0.85
			c-0.6,4.8-3.38,9.27-7.4,11.96C779.84,302.03,780.7,303.51,781.61,302.89L781.61,302.89z"/>
	</g>
</g>
<g>
	<g>
		<path d="M796.89,301.32c1.1-2.91,1.59-6.04,1.43-9.14c-0.06-1.09-1.76-1.1-1.71,0c0.15,2.97-0.31,5.91-1.37,8.69
			c-0.16,0.43,0.18,0.93,0.6,1.05C796.33,302.04,796.73,301.75,796.89,301.32L796.89,301.32z"/>
	</g>
</g>
<g>
	<g>
		<path d="M802.71,301.3c2.35-1.64,3.81-4.36,3.81-7.24c0-1.1-1.71-1.1-1.71,0c0,2.23-1.12,4.48-2.97,5.76
			c-0.38,0.26-0.55,0.74-0.31,1.17C801.77,301.36,802.34,301.56,802.71,301.3L802.71,301.3z"/>
	</g>
</g>
<g>
	<g>
		<path d="M807.03,301.74c0.46,0.43,1.12,0.58,1.71,0.36c0.55-0.21,1-0.59,1.31-1.09c0.27-0.44,0.36-0.95,0.44-1.45
			c0.04-0.23,0.08-0.47,0.15-0.69c0.02-0.06,0.04-0.12,0.06-0.19c0.01-0.03,0.02-0.06,0.03-0.09c-0.02,0.04-0.03,0.07-0.05,0.11
			c0.04-0.03,0.06-0.13,0.09-0.18s0.17-0.24,0.01-0.03c0.15-0.19,0.25-0.36,0.25-0.6c0-0.21-0.09-0.46-0.25-0.6
			c-0.31-0.28-0.91-0.38-1.21,0c-0.22,0.27-0.36,0.52-0.49,0.85c-0.08,0.19-0.13,0.4-0.17,0.6c-0.09,0.43-0.13,0.86-0.26,1.27
			c-0.03,0.09-0.09,0.13,0.02-0.05c-0.02,0.03-0.04,0.08-0.06,0.11c-0.02,0.04-0.05,0.07-0.07,0.11c-0.02,0.02-0.03,0.05-0.05,0.07
			c0.09-0.11,0.11-0.14,0.07-0.09c-0.06,0.07-0.13,0.14-0.2,0.2s-0.14,0.07,0.04-0.02c-0.03,0.02-0.07,0.05-0.11,0.07
			c-0.03,0.02-0.07,0.04-0.11,0.06c-0.13,0.08,0.22-0.06,0.03-0.02c-0.05,0.01-0.09,0.02-0.13,0.03c-0.14,0.03,0.23-0.01,0.08-0.01
			c-0.03,0-0.07-0.01-0.11-0.01c0.19-0.01,0.19,0.02,0.09,0c-0.14-0.03,0.18,0.1,0.07,0.03c-0.18-0.12,0.13,0.11,0.02,0.01
			c-0.32-0.31-0.89-0.35-1.21,0C806.72,300.86,806.68,301.41,807.03,301.74L807.03,301.74z"/>
	</g>
</g>
<g>
	<g>
		<path d="M815.51,304.83c-1.08-3.07-2.73-5.88-4.89-8.31c-0.73-0.82-1.93,0.39-1.21,1.21c1.96,2.2,3.48,4.78,4.45,7.56
			c0.15,0.43,0.59,0.72,1.05,0.6C815.34,305.77,815.66,305.26,815.51,304.83L815.51,304.83z"/>
	</g>
</g>
<g>
	<g>
		<path d="M797.43,302.51c-1.11-2.51-2.22-5.02-3.33-7.53c-0.19-0.42-0.8-0.52-1.17-0.31c-0.43,0.26-0.49,0.74-0.31,1.17
			c1.11,2.51,2.22,5.02,3.33,7.53c0.19,0.42,0.8,0.52,1.17,0.31C797.56,303.42,797.62,302.93,797.43,302.51L797.43,302.51z"/>
	</g>
</g>
<g>
	<g>
		<path d="M786.28,297.93c-2.46-3.31-4.93-6.63-7.38-9.94c-0.27-0.37-0.74-0.56-1.17-0.31c-0.36,0.21-0.58,0.8-0.31,1.17
			c2.46,3.31,4.93,6.63,7.38,9.94c0.27,0.37,0.74,0.56,1.17,0.31C786.34,298.89,786.56,298.3,786.28,297.93L786.28,297.93z"/>
	</g>
</g>
<g>
	<g>
		<path d="M774.99,293.49c-0.26-2.35-1.28-4.55-2.98-6.2c-0.33-0.32-0.88-0.33-1.21,0c-0.32,0.32-0.33,0.89,0,1.21
			c0.73,0.71,1.24,1.4,1.71,2.34c0.11,0.22,0.19,0.4,0.24,0.55c0.09,0.24,0.18,0.48,0.25,0.73c0.07,0.23,0.13,0.47,0.18,0.71
			c0.03,0.13,0.05,0.27,0.07,0.4c0,0.02,0.03,0.18,0.02,0.11s0.02,0.16,0.02,0.16c0.05,0.44,0.36,0.88,0.85,0.85
			C774.55,294.33,775.04,293.97,774.99,293.49L774.99,293.49z"/>
	</g>
</g>
<g>
	<g>
		<path d="M770.03,296.33c-3.02-1.66-3.95-5.38-4.69-8.48c-0.26-1.07-1.9-0.61-1.64,0.46c0.85,3.56,2.04,7.62,5.48,9.5
			C770.13,298.34,771,296.86,770.03,296.33L770.03,296.33z"/>
	</g>
</g>
<g>
	<g>
		<path d="M774.42,300.54c0.66-4.04,2.28-7.9,4.8-11.13c0.28-0.36,0.35-0.85,0-1.21c-0.29-0.3-0.92-0.36-1.21,0
			c-2.7,3.47-4.53,7.54-5.23,11.88C772.6,301.16,774.24,301.62,774.42,300.54L774.42,300.54z"/>
	</g>
</g>
<g>
	<g>
		<path d="M762.25,285.44c-0.18,0.77,0.04,1.52,0.47,2.17c0.38,0.58,0.88,1.29,1.57,1.51c0.86,0.27,1.68-0.35,1.96-1.14
			c0.26-0.73-0.04-1.5-0.3-2.17c-0.46-1.17-1.1-2.41-2.39-2.82c-1.1-0.35-2.64,0.09-2.96,1.33c-0.13,0.47,0.22,0.94,0.49,1.3
			c0.22,0.29,0.44,0.56,0.71,0.81c0.56,0.51,1.21,0.89,1.92,1.15c0.41,0.15,0.96-0.17,1.05-0.6c0.14-0.68-0.23-1.28-0.89-1.49
			c-0.53-0.17-1.26,0.02-1.5,0.57c-0.09,0.22-0.15,0.42-0.09,0.66c0.06,0.2,0.2,0.41,0.39,0.51c0.36,0.19,0.98,0.13,1.17-0.31
			c0.04-0.09,0.09-0.1-0.05,0.05c-0.07,0.07-0.16,0.12-0.25,0.15c0.14-0.04-0.22,0.01-0.08,0.01c-0.03,0-0.23-0.05-0.09-0.01
			c0.07,0.02,0.14,0.08-0.07-0.03c0.12,0.06-0.13-0.12-0.06-0.05s-0.12-0.18-0.06-0.07c-0.08-0.14-0.1-0.28-0.06-0.44
			c0.35-0.2,0.7-0.4,1.05-0.6c-0.06-0.02-0.13-0.04-0.19-0.07c0.18,0.1,0.01,0-0.04-0.02c-0.12-0.06-0.24-0.12-0.35-0.19
			s-0.23-0.14-0.33-0.22c-0.07-0.05-0.16-0.1-0.04-0.02c-0.06-0.04-0.12-0.1-0.18-0.15c-0.2-0.18-0.38-0.37-0.55-0.57
			c-0.04-0.05-0.03-0.03,0.03,0.04c-0.02-0.03-0.04-0.05-0.06-0.08c-0.04-0.05-0.07-0.11-0.11-0.17c-0.08-0.12-0.15-0.24-0.22-0.37
			c0.03,0.22,0.06,0.44,0.09,0.66c0.05-0.12-0.08,0.18,0.02-0.02c0.02-0.03,0.07-0.07-0.01,0.01c-0.1,0.1-0.02,0.02,0.01-0.01
			c0.02-0.02,0.05-0.05,0.07-0.07c0.05-0.06-0.07,0.06-0.08,0.06c0.06-0.02,0.13-0.09,0.18-0.11c0.17-0.1-0.14,0.03,0,0
			c0.06-0.02,0.13-0.03,0.19-0.05c0.14-0.04-0.19,0.01,0,0c0.08-0.01,0.15-0.01,0.23-0.01c0.02,0,0.09,0.01,0.1,0.01
			c-0.01,0-0.18-0.03-0.1-0.01c0.06,0.02,0.12,0.02,0.18,0.04c0.04,0.01,0.15,0.07,0.19,0.06c-0.02,0-0.18-0.1-0.06-0.02
			c0.03,0.02,0.06,0.03,0.09,0.05c0.04,0.02,0.25,0.14,0.07,0.03c0.06,0.04,0.11,0.1,0.16,0.15s0.1,0.1,0.15,0.16
			c0.02,0.02,0.07,0.07,0.08,0.1c-0.07-0.16-0.03-0.04,0,0.01c0.19,0.28,0.34,0.58,0.48,0.88c0.02,0.04,0.08,0.13-0.01-0.02
			c0.02,0.03,0.02,0.06,0.04,0.09c0.03,0.08,0.06,0.16,0.1,0.24c0.07,0.18,0.14,0.36,0.2,0.55c0.03,0.09,0.06,0.18,0.08,0.27
			c0.01,0.05,0.02,0.1,0.03,0.15c-0.01-0.05,0-0.14-0.01,0.01c0,0.04-0.01,0.08-0.01,0.12c0,0.12,0.05-0.11-0.01-0.02
			c-0.01,0.01-0.03,0.09-0.03,0.09c0.05-0.1,0.05-0.12,0.02-0.06c-0.02,0.03-0.03,0.05-0.05,0.08c-0.01-0.01,0.11-0.11,0.03-0.05
			c-0.03,0.02-0.13,0.07-0.03,0.03s0.01-0.01-0.01,0c0.17-0.09,0.1-0.03,0.04-0.02c0.19-0.04,0.11-0.02,0.05-0.02
			c0.01,0,0.21,0.02,0.19,0.05c-0.01,0.01-0.07-0.05-0.09-0.05c-0.07-0.03,0.09,0.1-0.01-0.01c-0.13-0.15-0.26-0.29-0.38-0.44
			c-0.08-0.1,0.07,0.1,0,0c-0.03-0.05-0.07-0.1-0.11-0.15c-0.06-0.08-0.11-0.16-0.16-0.24c-0.06-0.09-0.1-0.19-0.15-0.28
			c-0.06-0.11,0.03,0.12,0.01,0.01c-0.02-0.06-0.04-0.11-0.05-0.16c-0.01-0.02-0.04-0.12-0.03-0.13c-0.01,0.01,0.01,0.17,0.01,0.02
			c0-0.05,0-0.09,0-0.14c-0.01-0.18-0.03,0.15,0.01-0.05c0.1-0.43-0.13-0.94-0.6-1.05C762.87,284.75,762.36,284.98,762.25,285.44
			L762.25,285.44z"/>
	</g>
</g>
<g>
	<g>
		<path d="M762.33,282.4c0.55-1.35,1.18-2.67,1.89-3.95c0.35-0.63,0.72-1.26,1.12-1.87c0.24-0.37,0.77-1.43,1.32-1.42
			c0.91,0.01,0.41,2.38,0.32,2.8c-0.31,1.43-0.9,2.74-1.73,3.94c-0.35,0.5,0.11,1.36,0.74,1.29c2.18-0.26,4.36-0.56,6.55-0.76
			c0.76-0.07,1.59-0.13,2.32,0.13c0.82,0.3,1.13,1.02,1.16,1.85c0.02,0.56,0.12,1.88-0.32,2.32c-0.3,0.3-0.97,0.25-1.36,0.28
			c-0.52,0.04-1.05,0.06-1.57,0.06c-2.12,0-4.19-0.36-6.2-1.03c-0.59-0.19-1.28,0.45-1.05,1.05c0.47,1.24-0.77,2.08-1.7,2.61
			c-1.08,0.61-2.22,1.26-3.45,1.5c-0.32,0.06-0.65,0.1-0.98,0.07c-0.16-0.01-0.33-0.03-0.49-0.07c-0.24-0.13-0.3-0.11-0.17,0.07
			c0.03-0.44,0.44-1,0.67-1.37c0.63-1,1.5-1.82,2.51-2.42c0.86-0.52,0.27-1.73-0.66-1.56c-1.45,0.27-3.01,0.45-4.46,0.09
			c-1.07-0.27-2.3-0.93-2.32-2.19c-0.01-1.21,1.14-2.29,2.3-2.45c1.59-0.22,3.05,0.79,4.02,1.94c0.71,0.84,1.91-0.37,1.21-1.21
			c-1.37-1.63-3.5-2.78-5.67-2.38c-1.79,0.33-3.34,1.9-3.53,3.73c-0.19,1.86,1.12,3.3,2.75,3.95c1.95,0.77,4.15,0.55,6.16,0.17
			c-0.22-0.52-0.44-1.04-0.66-1.56c-1.51,0.9-2.78,2.21-3.56,3.8c-0.35,0.72-0.75,1.59-0.24,2.33s1.68,0.85,2.5,0.82
			c1.89-0.07,3.75-1.06,5.32-2.04c1.44-0.9,2.76-2.5,2.09-4.3c-0.35,0.35-0.7,0.7-1.05,1.05c2.47,0.82,5.1,1.2,7.7,1.06
			c1.09-0.06,2.46-0.04,3.21-0.97c0.67-0.83,0.7-2.14,0.7-3.16c0-1.06-0.26-2.16-1.05-2.92c-0.75-0.72-1.76-0.98-2.78-1.03
			c-1.19-0.06-2.4,0.16-3.58,0.3c-1.44,0.17-2.88,0.34-4.33,0.51c0.24,0.43,0.49,0.85,0.74,1.29c1.12-1.62,1.84-3.48,2.08-5.43
			c0.17-1.36,0.07-3.35-1.54-3.81c-1.9-0.55-3.07,1.62-3.87,2.95c-1.06,1.75-1.95,3.58-2.71,5.47
			C760.27,282.96,761.92,283.41,762.33,282.4L762.33,282.4z"/>
	</g>
</g>
<g>
	<g>
		<path d="M963.01,298.8c-0.85-1.5-2.24-5.27,0.07-6.26c-0.43-0.24-0.85-0.49-1.29-0.73c-0.22,1.95-0.08,3.89,0.38,5.79
			c0.52-0.22,1.04-0.44,1.56-0.66c-0.07,0.24-0.05,0.32,0.05,0.22c0.06-0.05,0.14-0.1,0.22-0.13c0.18-0.08,0.39-0.1,0.57-0.14
			c0.51-0.1,1.02-0.16,1.54-0.22c0.5-0.06,1-0.1,1.5-0.12c0.1-0.01,0.62,0.04,0.72-0.02c0.03-0.5-0.06-0.68-0.28-0.53
			c-0.07,0.05-0.15,0.08-0.24,0.09c-0.94,0.3-2.05,0.36-3.03,0.41c-1.04,0.06-2.1,0.06-3.14-0.07c-0.92-0.12-1.46-0.7-2.16-1.24
			c-0.73-0.55-1.51-1.02-2.34-1.4c-1.67-0.75-3.46-1.14-5.29-1.13c-0.57,0-0.94,0.54-0.82,1.08c0.35,1.56,2.05,2.02,3.35,2.51
			c1.89,0.71,3.78,1.42,5.68,2.13c-0.07-0.52-0.14-1.04-0.2-1.56c-1.12,0.64-2.47,0.65-3.6,1.29c-1.02,0.57-1.8,1.56-1.77,2.78
			c0.02,0.54,0.53,0.98,1.08,0.83c2.34-0.69,4.46-1.82,6.38-3.32c-0.48-0.28-0.95-0.55-1.43-0.83c-0.31,1.84-0.23,3.66,0.28,5.46
			c0.19,0.68,1.21,0.87,1.56,0.21c0.8-1.54,0.8-3.26,0.03-4.81c-0.17,0.42-0.34,0.84-0.51,1.25c1.44-0.26,2.98,0.11,4.14,1.02
			c0.35-0.45,0.69-0.89,1.04-1.34c-1.35-0.57-2.7-1.15-4.06-1.73c-0.36-0.15-0.74-0.15-1.04,0.13c-0.59,0.57-0.45,1.46,0.23,1.88
			c0.93,0.59,1.79-0.89,0.86-1.47c0.04,0.27,0.08,0.54,0.11,0.8c-0.35,0.05-0.69,0.09-1.04,0.13c1.35,0.57,2.7,1.15,4.06,1.73
			c0.4,0.17,0.82,0.14,1.1-0.22c0.23-0.3,0.27-0.86-0.07-1.12c-1.68-1.31-3.69-1.83-5.8-1.46c-0.58,0.1-0.73,0.81-0.51,1.25
			c0.49,0.98,0.48,2.11-0.03,3.09c0.52,0.07,1.04,0.14,1.56,0.2c-0.43-1.48-0.53-3.02-0.28-4.55c0.15-0.88-0.75-1.37-1.43-0.83
			c-1.67,1.31-3.59,2.28-5.63,2.88c0.36,0.27,0.72,0.55,1.08,0.82c-0.03-0.92,0.96-1.39,1.72-1.62c0.96-0.29,1.92-0.47,2.8-0.97
			c0.68-0.39,0.46-1.31-0.2-1.56c-1.54-0.57-3.08-1.15-4.62-1.73c-0.72-0.27-1.45-0.51-2.15-0.81c-0.44-0.19-0.95-0.4-1.06-0.91
			c-0.27,0.36-0.55,0.72-0.82,1.08c2.05-0.01,4.05,0.54,5.8,1.62c0.81,0.51,1.48,1.25,2.32,1.7c0.9,0.49,2.03,0.5,3.03,0.54
			c1.14,0.04,2.29-0.03,3.42-0.18c0.95-0.12,2.15-0.18,2.9-0.86c0.62-0.56,0.71-1.53,0-2.07c-0.73-0.55-1.95-0.28-2.79-0.2
			c-1.11,0.1-2.47,0.12-3.46,0.68c-0.8,0.45-1.33,1.34-0.8,2.21c0.51,0.83,1.79,0.29,1.56-0.66c-0.43-1.76-0.52-3.54-0.32-5.34
			c0.08-0.72-0.77-0.96-1.29-0.74c-1.38,0.59-1.96,2.08-2.06,3.49c-0.13,1.76,0.51,3.59,1.37,5.1
			C962.08,300.61,963.56,299.76,963.01,298.8L963.01,298.8z"/>
	</g>
</g>
</svg>
